<?xml version="1.0" encoding="UTF-8"?>
<!DOCTYPE svg PUBLIC "-//W3C//DTD SVG 1.1//EN" "http://www.w3.org/Graphics/SVG/1.1/DTD/svg11.dtd">
<!-- Creator: CorelDRAW 2018 (64-Bit) -->
<svg xmlns="http://www.w3.org/2000/svg" xml:space="preserve" width="7.4493mm" height="7.1697mm" version="1.1" style="shape-rendering:geometricPrecision; text-rendering:geometricPrecision; image-rendering:optimizeQuality; fill-rule:evenodd; clip-rule:evenodd"
viewBox="0 0 2.91 2.8"
 xmlns:xlink="http://www.w3.org/1999/xlink">
 <defs>
  <style type="text/css">
   <![CDATA[
    .fil0 {fill:#AAAAAA}
   ]]>
  </style>
 </defs>
 <g id="Слой_x0020_1">
  <metadata id="CorelCorpID_0Corel-Layer"/>
  <path id="drop-filter.svg" class="fil0" d="M0.11 0c-0,0 -0,-0 -0,-0 -0.06,0 -0.11,0.05 -0.11,0.11 0,0.06 0.05,0.11 0.11,0.11 0,0 0,0 0,0l0.09 0 0.77 0.97 0.65 0 0.77 -0.97 0.09 0c0,0 0,0 0,0 0.06,0 0.11,-0.05 0.11,-0.11 0,-0.06 -0.05,-0.11 -0.11,-0.11 -0,0 -0,0 -0,0l-2.37 0zm2.04 1.29c-0.42,0 -0.75,0.34 -0.75,0.75 0,0.42 0.34,0.75 0.75,0.75 0.42,0 0.75,-0.34 0.75,-0.75 0,-0.42 -0.34,-0.75 -0.75,-0.75zm-1.18 0.11l0 0.97 0.25 -0.08c-0.02,-0.08 -0.03,-0.16 -0.03,-0.24 0,-0.25 0.09,-0.47 0.25,-0.65l-0.46 0zm0.97 0.32c0.03,0 0.06,0.01 0.08,0.03l0.14 0.14 0.14 -0.14c0.04,-0.04 0.11,-0.04 0.15,0 0.04,0.04 0.04,0.11 0,0.15l-0.14 0.14 0.14 0.14c0.04,0.04 0.04,0.11 0,0.15 -0.02,0.02 -0.05,0.03 -0.08,0.03 -0.03,0 -0.06,-0.01 -0.08,-0.03l-0.14 -0.14 -0.14 0.14c-0.02,0.02 -0.05,0.03 -0.08,0.03 -0.03,0 -0.06,-0.01 -0.08,-0.03 -0.04,-0.04 -0.04,-0.11 0,-0.15l0.14 -0.14 -0.14 -0.14c-0.04,-0.04 -0.04,-0.11 0,-0.15 0.02,-0.02 0.05,-0.03 0.08,-0.03z"/>
 </g>
</svg>
