<?xml version="1.0" encoding="UTF-8"?>
<!DOCTYPE svg PUBLIC "-//W3C//DTD SVG 1.1//EN" "http://www.w3.org/Graphics/SVG/1.1/DTD/svg11.dtd">
<!-- Creator: CorelDRAW 2018 (64-Bit) -->
<svg xmlns="http://www.w3.org/2000/svg" xml:space="preserve" width="10.582mm" height="8.8182mm" version="1.1" style="shape-rendering:geometricPrecision; text-rendering:geometricPrecision; image-rendering:optimizeQuality; fill-rule:evenodd; clip-rule:evenodd"
viewBox="0 0 6.17 5.14"
 xmlns:xlink="http://www.w3.org/1999/xlink">
 <defs>
  <style type="text/css">
   <![CDATA[
    .fil0 {fill:none}
    .fil1 {fill:#E1E3E6}
   ]]>
  </style>
 </defs>
 <g id="Слой_x0020_1">
  <metadata id="CorelCorpID_0Corel-Layer"/>
  <rect class="fil0" width="6.17" height="5.14"/>
 </g>
 <g id="Слой_x0020_1_0">
  <metadata id="CorelCorpID_1Corel-Layer"/>
  <path id="silver-king.svg" class="fil1" d="M3.08 1.27c-0.12,0 -0.22,0.1 -0.22,0.22 0,0.08 0.05,0.16 0.12,0.2l-0.44 0.82 -0.6 -0.35c0.02,-0.03 0.03,-0.07 0.03,-0.11 0,-0.12 -0.1,-0.22 -0.22,-0.22 -0.12,0 -0.22,0.1 -0.22,0.22 0,0.12 0.1,0.22 0.22,0.22 0.01,-0 0.01,-0 0.02,-0l0.09 0.89 0.33 0 1.45 0 0.33 0 0.33 0 0.09 -0.89c0.01,0 0.01,0 0.02,0 0,0 0,0 0,0 0.12,0 0.22,-0.1 0.22,-0.22 0,-0.12 -0.1,-0.22 -0.22,-0.22 -0.12,0 -0.22,0.1 -0.22,0.22 0,0.04 0.01,0.08 0.03,0.11l-0.6 0.35 -0.44 -0.82c0.07,-0.04 0.12,-0.11 0.12,-0.2 0,-0.12 -0.1,-0.22 -0.22,-0.22zm-1.22 2.11l0 0.22c0,0.12 0.1,0.22 0.22,0.22l2 0c0.12,0 0.22,-0.1 0.22,-0.22l0 -0.22 -2.45 0z"/>
 </g>
</svg>
