<?xml version="1.0" encoding="UTF-8"?>
<!DOCTYPE svg PUBLIC "-//W3C//DTD SVG 1.1//EN" "http://www.w3.org/Graphics/SVG/1.1/DTD/svg11.dtd">
<!-- Creator: CorelDRAW X8 -->
<svg xmlns="http://www.w3.org/2000/svg" xml:space="preserve" width="45.1191mm" height="15.4938mm" version="1.1" style="shape-rendering:geometricPrecision; text-rendering:geometricPrecision; image-rendering:optimizeQuality; fill-rule:evenodd; clip-rule:evenodd"
viewBox="0 0 409258 140538"
 xmlns:xlink="http://www.w3.org/1999/xlink">
 <defs>
  <style type="text/css">
   <![CDATA[
    .fil0 {fill:none}
    .fil1 {fill:#1689C7}
    .fil2 {fill:#1689C7;fill-rule:nonzero}
    .fil3 {fill:gray;fill-rule:nonzero}
   ]]>
  </style>
 </defs>
 <g id="Слой_x0020_1">
  <metadata id="CorelCorpID_0Corel-Layer"/>
  <rect class="fil0" x="5" width="408710" height="140538"/>
  <path class="fil1" d="M49947 22832c16355,-1314 32890,5433 42948,17775 1717,2107 3508,4486 4872,7146 2943,5738 4916,10971 5595,18316 967,10466 -1416,20528 -6666,29113 -4309,7044 -11285,13826 -18793,17505 -5435,2663 -12281,5278 -18655,5641 -15733,895 -28421,-4147 -37171,-11436 -4358,-3630 -8047,-8493 -10701,-13497 -2792,-5266 -4822,-11701 -5544,-18423 -1247,-11590 1756,-23818 8774,-32867 1770,-2283 2271,-2840 4282,-4884 549,-558 897,-843 1516,-1493 285,-298 514,-433 829,-685 3561,-2842 5262,-4249 9962,-6635 4686,-2378 12634,-5085 18752,-5576zm58811 49701c317,-8210 -1113,-15733 -4013,-22528 -1887,-4420 -5285,-9998 -8473,-13508 -1786,-1967 -1910,-2240 -4072,-4277 -2511,-2369 -2652,-2555 -5540,-4604 -8531,-6051 -18667,-9988 -30008,-10459 -12794,-531 -26176,3995 -35647,11580l-3641 3071 -6477 7071c-1879,2444 -3622,5154 -5184,8201 -3127,6100 -5290,13132 -5651,20983 -670,14564 5255,28993 14829,38820 777,797 3520,3581 4390,4241l2742 2192c8316,6290 18905,9845 30136,10363 11974,552 22591,-2776 32065,-8618 3292,-2029 4207,-3003 6793,-5005 1707,-1322 5799,-5796 7337,-7850 6363,-8501 9977,-18394 10414,-29673z"/>
  <path class="fil1" d="M51298 45404c-6737,323 -12947,2017 -18337,4471 -7174,3266 -10534,5273 -15657,9741 -556,484 -978,865 -1478,1401l-2626 2980c-1543,2021 -7614,11721 -463,6041l4702 -3793c6167,-4997 10741,-8886 19245,-12057 13067,-4873 24771,-4687 36928,2132 4783,2683 17360,11738 15838,17869 -983,3964 -8081,8825 -11876,10852 -15474,8261 -31233,7930 -42728,-2784 -14634,-13640 14792,-25261 26471,-18940 2202,1192 4222,3405 4970,6366 1594,6312 -3665,13271 -10232,11613 -3189,-804 -4849,-2584 -6200,-5036 -1128,-2043 -2998,-7765 -3999,-6915 -631,535 -1053,3432 -1078,4540 -230,10449 14109,17290 23559,9579 3575,-2916 6618,-10405 4126,-16691 -1901,-4794 -6705,-8492 -12341,-10272 -10231,-3231 -18252,72 -26409,5201 -3967,2494 -9586,7163 -10985,11734 -1098,3590 887,6105 2532,8029 3138,3671 7863,6615 13124,9512 13855,7630 31655,7013 44656,-1952 4216,-2907 7020,-5886 9902,-9816 1899,-2589 4679,-6177 2699,-10031 -1033,-2010 -2342,-3147 -3753,-4728 -243,-274 -402,-461 -649,-723 -267,-280 -513,-438 -785,-716 -5856,-5989 -11827,-10761 -19900,-14122 -5615,-2338 -12370,-3815 -19256,-3485z"/>
  <path class="fil1" d="M55156 68473c-2037,521 -2779,3316 -1766,5423 1953,4061 6613,2790 7327,632 805,-2434 -2718,-6782 -5561,-6055z"/>
  <path class="fil1" d="M49947 22832c16355,-1314 32890,5433 42948,17775 1717,2107 3508,4486 4872,7146 2943,5738 4916,10971 5595,18316 967,10466 -1416,20528 -6666,29113 -4309,7044 -11285,13826 -18793,17505 -5435,2663 -12281,5278 -18655,5641 -15733,895 -28421,-4147 -37171,-11436 -4358,-3630 -8047,-8493 -10701,-13497 -2792,-5266 -4822,-11701 -5544,-18423 -1247,-11590 1756,-23818 8774,-32867 1770,-2283 2271,-2840 4282,-4884 549,-558 897,-843 1516,-1493 285,-298 514,-433 829,-685 3561,-2842 5262,-4249 9962,-6635 4686,-2378 12634,-5085 18752,-5576zm58811 49701c317,-8210 -1113,-15733 -4013,-22528 -1887,-4420 -5285,-9998 -8473,-13508 -1786,-1967 -1910,-2240 -4072,-4277 -2511,-2369 -2652,-2555 -5540,-4604 -8531,-6051 -18667,-9988 -30008,-10459 -12794,-531 -26176,3995 -35647,11580l-3641 3071 -6477 7071c-1879,2444 -3622,5154 -5184,8201 -3127,6100 -5290,13132 -5651,20983 -670,14564 5255,28993 14829,38820 777,797 3520,3581 4390,4241l2742 2192c8316,6290 18905,9845 30136,10363 11974,552 22591,-2776 32065,-8618 3292,-2029 4207,-3003 6793,-5005 1707,-1322 5799,-5796 7337,-7850 6363,-8501 9977,-18394 10414,-29673z"/>
  <path class="fil2" d="M148996 78383c-747,4 -2737,228 -3231,-266 -497,-497 -271,-2483 -265,-3230 56,-7387 9,-14820 9,-22211 0,-3977 -3,-7952 -8,-11928 -1,-832 -193,-3196 110,-3800 426,-850 2162,-555 2998,-534 801,19 3132,-146 3689,91 754,320 547,1706 523,2364 -100,2684 -32,5569 -32,8273 0,7411 38,14842 -2,22250 -2,654 -188,2403 246,2842 450,453 2343,249 3031,247 4722,-16 9447,39 14168,-43 2032,26 1653,883 1635,2623 -8,811 230,2630 -453,3118 -601,426 -2665,202 -3493,199 -6303,-27 -12621,-31 -18925,5zm30991 -2c-773,5 -2763,201 -3327,-175 -659,-437 -439,-2449 -408,-3198 76,-1879 590,-2125 1822,-3402 2606,-2751 5189,-5653 7756,-8454 1475,-1611 2951,-3222 4426,-4833 2017,-2251 3453,-4130 4308,-5634 856,-1515 1278,-3030 1278,-4544 0,-2006 -560,-3619 -1682,-4848 -1121,-1230 -2634,-1849 -4532,-1849 -2272,0 -4023,689 -5272,2074 -1398,1684 -1353,2333 -1733,4293 -298,1544 -1229,1508 -2651,1433 -1058,-56 -1878,0 -2903,0 -1836,0 -1718,-1032 -1418,-2555 322,-1634 754,-2929 1566,-4390 1170,-2045 2831,-3638 4986,-4768 2163,-1132 4652,-1692 7483,-1692 4072,0 7278,1022 9637,3068 2351,2045 3522,4878 3522,8487 0,2094 -590,4287 -1770,6588 -1181,2291 -3118,4908 -5803,7819 -1732,1853 -3465,3707 -5199,5563 -1294,1384 -2573,2731 -3885,4097 -1373,1431 -533,1391 1010,1344 3314,-97 6783,-30 10114,-30 1689,0 3330,-38 5014,-61 2586,-37 2259,894 2237,3174 -28,2705 -303,2597 -2941,2508 -2340,-78 -4865,-21 -7223,-25 -4805,-5 -9608,-8 -14412,10zm64435 -19885c0,4121 -718,7730 -2133,10828 -1426,3109 -3452,5487 -6097,7150 -2636,1661 -5675,2498 -9117,2498 -3402,0 -6431,-837 -9086,-2498 -2665,-1663 -4720,-4032 -6166,-7101 -1455,-3078 -2183,-6628 -2204,-10640l0 -2371c0,-4091 718,-7700 2174,-10837 1445,-3137 3490,-5527 6136,-7189 2636,-1661 5665,-2497 9087,-2497 3422,0 6451,826 9087,2468 2645,1643 4680,4002 6126,7091 1436,3088 2174,6677 2193,10768l0 2330zm-7296 -2134c0,-4661 -876,-8231 -2636,-10719 -1750,-2489 -4248,-3727 -7474,-3727 -3147,0 -5616,1238 -7386,3717 -1779,2469 -2684,5971 -2723,10503l0 2428c0,4624 894,8193 2694,10720 1790,2527 4288,3787 7474,3787 3225,0 5704,-1229 7444,-3698 1742,-2468 2607,-6067 2607,-10809l0 -2202zm21904 20222c-2,2197 -841,1861 -2736,1808 -1035,-27 -1951,17 -2972,28 -1980,23 -1708,-1026 -1646,-2688 88,-2334 27,-4866 28,-7220 11,-9391 25,-18783 -5,-28175 -3,-805 -204,-2959 163,-3539 410,-645 2231,-386 2955,-376 792,10 3083,-160 3649,110 834,399 549,2149 530,2962 -68,2893 -10,5917 -10,8823 0,2020 -12,4017 -31,6036 -21,2017 562,1187 1438,50 816,-1055 1656,-2083 2495,-3120l130 -162c3337,-3995 6728,-7988 10029,-12008 619,-758 1679,-2341 2638,-2595 780,-206 3897,-75 4980,-96 458,-10 2953,-258 2995,310 36,495 -1909,2508 -2328,3004 -2610,3083 -5195,6198 -7789,9294 -1375,1640 -2714,3268 -4145,4860 -1122,1249 -703,1502 273,2791 1500,1980 2983,4190 4424,6235 2330,3306 4663,6612 6993,9917 974,1384 1942,2714 2932,4080 1230,1698 152,1553 -1440,1504 -1460,-44 -2932,-16 -4394,0l-207 3c-1952,24 -2163,-740 -3163,-2234 -1025,-1532 -2125,-3064 -3180,-4580 -2329,-3347 -4671,-6677 -6953,-10055 -1154,-1586 -1567,-732 -2614,455 -823,934 -1663,1726 -2492,2615 -842,905 -620,1721 -603,2916 43,3018 -17,6018 56,9047zm62432 -18088c0,4121 -718,7730 -2133,10828 -1426,3109 -3453,5487 -6098,7150 -2636,1661 -5674,2498 -9117,2498 -3402,0 -6431,-837 -9086,-2498 -2665,-1663 -4720,-4032 -6166,-7101 -1455,-3078 -2182,-6628 -2203,-10640l0 -2371c0,-4091 717,-7700 2173,-10837 1445,-3137 3492,-5527 6137,-7189 2635,-1661 5664,-2497 9087,-2497 3422,0 6451,826 9086,2468 2645,1643 4682,4002 6127,7091 1436,3088 2173,6677 2193,10768l0 2330zm-7296 -2134c0,-4661 -877,-8231 -2636,-10719 -1751,-2489 -4248,-3727 -7474,-3727 -3147,0 -5616,1238 -7387,3717 -1778,2469 -2684,5971 -2723,10503l0 2428c0,4624 895,8193 2694,10720 1791,2527 4289,3787 7474,3787 3226,0 5705,-1229 7445,-3698 1741,-2468 2607,-6067 2607,-10809l0 -2202zm14730 14644c1309,0 2312,363 3020,1101 717,737 1072,1663 1072,2774 0,1091 -355,1996 -1072,2713 -708,718 -1711,1082 -3020,1082 -1248,0 -2242,-353 -2969,-1061 -729,-709 -1093,-1624 -1093,-2734 0,-1111 355,-2037 1064,-2774 707,-738 1710,-1101 2998,-1101zm20080 -6295c53,3117 -21,6286 19,9420 10,813 24,1629 43,2442 3,2234 -799,1875 -2739,1822 -1044,-29 -1963,27 -2982,32 -1936,9 -1718,-1066 -1650,-2685 102,-2466 33,-5154 33,-7642 0,-9319 39,-18653 0,-27970 -4,-692 -204,-3054 220,-3480 434,-436 2770,-225 3468,-222 3683,20 7379,1 11064,1 4838,0 8575,1092 11201,3265 2636,2173 3954,5320 3954,9431 0,2812 -679,5163 -2036,7061 -1173,1607 -2245,2516 -3983,3474 -1811,1001 -1480,1446 -526,3075 917,1568 1802,3305 2672,4915 523,969 1047,1938 1570,2908 1163,2150 2319,4263 3505,6398 849,1524 300,1500 -1264,1469 -1496,-30 -2935,1 -4422,-3 -1972,-6 -2083,-817 -2855,-2406 -1302,-2625 -2772,-5282 -4126,-7897 -758,-1466 -1509,-2936 -2250,-4411 -884,-1770 -1623,-1472 -3417,-1443 -1306,18 -2582,-26 -3880,-29 -1993,-6 -1665,798 -1619,2475zm7496 -8339c2459,0 4386,-619 5762,-1858 1386,-1239 2075,-2931 2075,-5075 0,-2242 -639,-3982 -1918,-5212 -1268,-1230 -3175,-1858 -5712,-1897 -2038,0 -4033,-11 -6069,-40 -1931,-30 -1688,858 -1637,2510 79,2554 19,5316 -2,7887 -5,690 -12,1381 -20,2071 -26,1932 855,1687 2515,1632 1634,-54 3361,-18 5006,-18zm52730 8105c0,4454 -1426,7985 -4277,10590 -2852,2606 -6647,3905 -11398,3905 -4799,0 -8614,-1279 -11437,-3845 -2822,-2567 -4229,-6128 -4229,-10681 0,-8097 45,-16217 -1,-24308 -2,-685 -214,-3081 211,-3501 639,-430 3397,-199 4385,-223 684,-15 2245,-275 2579,510 224,522 84,3071 84,3831 0,7897 0,15793 0,23691 0,2793 708,4937 2134,6413 1417,1475 3510,2212 6274,2212 5616,0 8419,-2951 8419,-8861 0,-8089 35,-16196 -2,-24283 -1,-539 -150,-3038 157,-3343 515,-314 3930,-152 4875,-185 2510,-87 2321,274 2246,2691 -83,2694 -20,5559 -20,8270 0,5706 0,11410 0,17117z"/>
  <path class="fil3" d="M145647 94720c-7,-694 -221,-2806 231,-3255 438,-434 2606,-230 3297,-227 1107,3 2214,0 3321,0 2368,0 4186,423 5454,1266 1498,1059 2179,2726 1815,4545 -298,1476 -1074,2027 -2233,2801 -819,549 -270,644 459,992 1643,779 2545,2035 2595,3874 0,1649 -606,2921 -1819,3822 -1214,901 -2933,1354 -5152,1354 -2080,0 -4098,2 -6181,52 -2026,49 -1887,-644 -1816,-2480 107,-2735 50,-5683 47,-8439 -2,-1434 -7,-2869 -18,-4305zm8039 13440c1554,0 2750,-300 3585,-894 1128,-859 1558,-2274 1098,-3610 -949,-2748 -4888,-2339 -7185,-2367 -625,-8 -1252,-16 -1877,-24 -2056,48 -1630,1053 -1612,2731 8,749 -131,3117 115,3633 392,817 1967,538 2776,533 1032,-8 2068,-2 3100,-2zm2768 -14372c-891,-525 -2208,-784 -3958,-784 -669,0 -3757,-64 -4147,26 -891,321 -698,1211 -669,2011 44,1232 -21,2289 -39,3496 -18,1234 574,1110 1684,1075 1359,-42 2877,23 4192,-59 2327,-147 4577,-983 4245,-3749 -113,-942 -525,-1514 -1308,-2016zm15615 14727c2122,-38 3894,-824 4762,-2859 342,-801 672,-1819 1786,-1537 536,136 578,505 505,1011 -249,1743 -1844,3428 -3367,4225 -1186,620 -2354,871 -3686,889 -2449,0 -4387,-852 -5817,-2555 -1431,-1701 -2150,-3992 -2150,-6865l0 -624c0,-1837 324,-3469 965,-4881 643,-1414 1567,-2509 2769,-3280 1201,-772 2608,-1154 4222,-1154 3109,40 5792,1514 6841,4556 237,689 551,2139 -611,2136 -1186,-2 -1297,-1743 -1834,-2644 -941,-1582 -2625,-2248 -4396,-2282 -1868,0 -3316,671 -4339,2019 -1033,1349 -1543,3233 -1543,5665l0 601c0,2385 510,4240 1543,5576 1023,1337 2479,2003 4350,2003zm18542 1729c-1590,0 -3021,-387 -4305,-1171 -1283,-782 -2278,-1873 -2991,-3274 -1857,-3874 -1473,-9649 1739,-12752 370,-357 720,-632 1141,-926 1241,-823 2584,-1236 4032,-1236 2268,0 4064,771 5395,2319 1415,1698 1986,3934 2031,6116 30,1459 -492,1477 -1834,1437 -1243,-33 -10894,-156 -11215,-49 -754,252 78,3168 302,3714 321,783 684,1326 1212,1978 1213,1407 2738,2115 4582,2115 3728,-54 4220,-2077 5323,-2213 573,-70 1051,466 761,1112 -576,1293 -2846,2352 -4188,2634 -682,144 -1292,188 -1985,196zm-384 -17593c-1548,0 -2854,571 -3921,1707 -656,754 -3015,4244 -994,4596 448,78 2815,-40 3490,-45 1852,-11 3703,24 5554,68 1452,34 1382,-340 1043,-1768 -271,-1146 -621,-1957 -1374,-2867 -965,-1126 -2231,-1691 -3798,-1691zm11623 2069c-6,-697 -223,-2799 235,-3252 474,-468 2764,-237 3502,-232 1035,8 2077,2 3113,2 2367,0 4187,423 5453,1266 1265,847 1896,2084 1896,3714 -88,3165 -2704,3518 -2728,4043 -11,239 1184,706 1441,860 1305,779 1988,2096 2028,3595 0,1649 -607,2921 -1819,3822 -1214,901 -2932,1354 -5152,1354 -2065,0 -4108,-16 -6173,44 -2084,62 -1880,-581 -1814,-2483 94,-2599 41,-5399 39,-8016 -1,-1572 -6,-3144 -21,-4717zm8040 13440c1554,0 2749,-300 3585,-894 842,-595 1260,-1461 1260,-2586 -104,-3030 -3090,-3373 -5471,-3376 -1252,-1 -2502,-18 -3753,-39 -2058,-36 -1629,1008 -1613,2740 5,648 -71,3090 34,3499 227,878 1289,687 2022,667 1293,-35 2638,-11 3936,-11zm2767 -14372c-890,-525 -2208,-784 -3957,-784 -1071,0 -2107,-29 -3171,-40 -2030,50 -1681,1033 -1636,2692 18,645 -62,2866 46,3268 259,950 1722,684 2461,663 2772,-66 7956,534 7569,-3720 -88,-965 -512,-1566 -1312,-2079zm21004 2168c6,-1786 -612,-531 -1141,301 -2393,3767 -4958,7454 -7364,11228 -633,996 -1467,2838 -2968,2417 -1011,-283 -717,-2027 -691,-2865 76,-2473 16,-5110 16,-7599 0,-2219 -8,-4389 -47,-6607 -4,-293 18,-1245 225,-1456 242,-249 1461,-249 1701,-1 351,359 179,3312 181,3971 0,3287 6,6573 -21,9860 -16,1708 419,813 1026,-143 2735,-4302 5660,-8497 8345,-12814 482,-777 963,-1271 1960,-1036 728,173 844,704 882,1391 48,859 -48,2023 -48,2940 -6,4192 -50,8353 39,12546 23,1018 27,1972 -1256,1839 -768,-136 -865,-727 -892,-1417 -36,-887 35,-1996 37,-2923 1,-3211 6,-6421 16,-9632zm10551 2389c83,-1798 131,-3571 198,-5365 71,-1975 662,-1852 2506,-1773 1943,83 3860,62 5802,20 635,-15 2355,-235 2703,361 327,560 149,2752 149,3537 2,3681 16,7355 -26,11037 -16,1414 39,1700 1352,2081 779,227 623,639 633,1407 15,1222 -15,2446 26,3667 32,864 21,2300 -1243,2105 -1375,-344 -901,-2290 -850,-3321 129,-2649 -684,-2309 -3088,-2215 -2000,79 -4239,29 -6258,14 -829,-6 -1658,-17 -2487,-30 -2867,-53 -2290,777 -2164,3246 35,669 87,1499 -237,2103 -267,272 -1356,262 -1607,2 -404,-810 -159,-3959 -204,-5131 -130,-3463 589,-557 2532,-3468 1302,-1951 1833,-4245 2113,-6539 68,-583 115,-1153 150,-1738zm2074 -318c-195,3442 -644,6327 -2548,9278 -645,998 -349,909 830,881 2580,-57 5125,-2 7700,-12 1440,-6 1265,-519 1252,-1830 -37,-3810 -87,-7754 5,-11552 -14,-2095 -934,-1634 -2704,-1614 -722,8 -3343,-110 -3798,19 -816,232 -612,1452 -626,2176 -17,881 -70,1773 -111,2654zm17363 10329c-520,894 -1258,1769 -2416,1588 -884,-137 -387,-921 -89,-1424 449,-752 3494,-5471 3601,-5905 160,-643 -699,-913 -1135,-1156 -3108,-1727 -3455,-6423 -749,-8698 2184,-1837 5196,-1523 7855,-1523 717,0 3236,-102 3722,32 845,230 728,1257 704,1973 -118,3370 -45,6906 -45,10295 0,1596 24,3164 40,4758 7,837 -134,1843 -1247,1626 -1158,-225 -904,-1805 -881,-2665 17,-664 90,-3818 -28,-4239 -274,-973 -1805,-665 -2645,-656 -790,9 -2589,-168 -3151,289 -520,422 -1652,2520 -2076,3229 -492,822 -979,1647 -1460,2476zm9037 -15216c-594,-273 -2180,-136 -2908,-136 -2237,0 -5141,-267 -6304,2154 -945,1970 -53,4477 2059,5177 1312,434 3943,232 5463,290 2380,91 2076,-571 2034,-2687 -17,-787 79,-3813 -33,-4291 -63,-261 -108,-345 -311,-507zm30746 12133c-40,771 -304,2315 565,2711 1191,541 1711,-282 1697,1975 -9,1269 -75,2570 -96,3852 -11,814 -163,1868 -1256,1687 -1040,-171 -735,-1783 -703,-2591 26,-634 209,-2516 -405,-2875 -593,-348 -2836,-143 -3741,-146 -4956,-10 -9912,-32 -14869,6 -697,5 -3448,286 -3781,-304 -301,-534 -142,-3351 -138,-4201 15,-3625 33,-7247 -8,-10872 -7,-611 -184,-2714 219,-3119 298,-297 1403,-343 1693,158 368,635 170,2757 166,3605 -15,3724 37,7443 -26,11165 -41,2351 905,1893 2909,1841 1386,-36 2645,9 4015,27 1692,21 1469,-864 1431,-2287 -113,-4182 78,-8447 -51,-12640 -16,-465 -120,-1719 384,-1954 400,-188 1228,-178 1499,165 419,531 220,3285 219,4096 -6,3730 3,7444 -31,11175 -15,1680 602,1438 2080,1417 876,-10 5218,98 5681,-76 732,-274 512,-1497 497,-2173 -91,-4349 34,-8701 -38,-13053 -5,-287 -9,-1291 197,-1496 257,-258 1387,-249 1677,113 382,479 223,3135 224,3886 8,3303 18,6604 -10,9908zm8607 -13152c1242,-823 2585,-1236 4033,-1236 2268,0 4064,771 5394,2319 1373,1648 1934,3778 2031,5893 91,2015 -1062,1692 -2694,1632 -2346,-84 -4849,-19 -7219,-41 -686,-8 -1372,-16 -2058,-27 -1707,-28 -1563,553 -1246,2130 796,3970 4040,6591 8120,5504 1757,-468 2212,-1543 3329,-1922 802,-217 1279,515 714,1350 -1763,2422 -5897,3008 -8640,2116 -3769,-1229 -5570,-4720 -5710,-8482 -136,-3638 793,-7091 3946,-9236zm4033 530c-1548,0 -2855,571 -3921,1707 -773,853 -1742,2524 -1778,3681 -39,1259 1637,941 2516,914 2542,-72 5266,-62 7807,25 869,31 791,-301 654,-1154 -220,-1376 -586,-2401 -1480,-3482 -965,-1126 -2231,-1691 -3798,-1691zm18638 17593c-1590,0 -3021,-387 -4305,-1171 -1284,-782 -2279,-1873 -2992,-3274 -2030,-4235 -1416,-10755 2712,-13564l169 -114c1241,-823 2584,-1236 4032,-1236 2269,0 4064,771 5394,2319 1384,1661 1929,3773 2035,5903 87,1761 -483,1690 -2058,1632 -3239,-114 -6459,1 -9700,-70 -1818,-41 -1743,681 -1423,2307 272,1382 761,2333 1643,3424 1213,1407 2738,2115 4582,2115 3711,-54 4210,-2084 5319,-2225 481,-60 1009,387 834,965 -400,1316 -2806,2453 -4054,2748 -750,178 -1420,231 -2188,241zm-384 -17593c-2863,60 -4768,1985 -5561,4621 -659,2189 1213,1689 2751,1671 2357,-27 4771,8 7132,34 1217,13 1156,-424 904,-1553 -271,-1215 -631,-2117 -1427,-3082 -965,-1126 -2233,-1691 -3799,-1691zm18854 7637c0,-1796 349,-3409 1043,-4845 695,-1443 1677,-2563 2950,-3357 1272,-801 2709,-1201 4323,-1201 2479,0 4492,871 6035,2613 1543,1744 2314,4053 2314,6931l0 431c0,1807 -353,3426 -1049,4874 -694,1443 -1672,2557 -2939,3339 -1264,784 -2707,1171 -4326,1171 -2474,0 -4488,-870 -6030,-2613 -1548,-1743 -2321,-4051 -2321,-6931l0 -412zm2068 577c0,2232 576,4069 1737,5500 1154,1431 2667,2150 4546,2150 1860,0 3368,-719 4521,-2150 1161,-1431 1737,-3321 1737,-5670l0 -395c0,-1432 -265,-2738 -794,-3922 -530,-1183 -1272,-2102 -2226,-2749 -954,-654 -2043,-978 -3273,-978 -1844,0 -3345,724 -4505,2167 -1161,1442 -1743,3333 -1743,5670l0 377zm21052 2273c29,1596 10,3152 59,4758 27,897 48,2272 -1265,2027 -957,-178 -934,-1251 -918,-2032 102,-4912 89,-9955 -8,-14867 -8,-462 -46,-1446 432,-1699 504,-267 1341,-231 1610,376 284,636 105,3211 98,4085 -3,709 -146,2848 157,3367 698,860 2464,417 3170,-260 694,-664 1748,-2058 2390,-2848 1167,-1437 2354,-2838 3492,-4300 457,-586 1012,-590 1749,-570 241,6 978,18 892,404 -128,574 -1852,2363 -2338,2937 -1389,1637 -2752,3226 -4170,4840 -774,879 -491,1183 270,2072 1077,1262 2291,2550 3403,3808 437,495 3892,4326 3963,4464 239,474 -1869,181 -2065,128 -1163,-308 -2012,-1642 -2797,-2544 -1374,-1582 -2774,-3226 -4165,-4784 -871,-973 -1665,-1504 -3025,-1243 -1073,205 -953,981 -934,1881zm14607 -2850c0,-1796 348,-3409 1043,-4845 694,-1443 1677,-2563 2949,-3357 1272,-801 2709,-1201 4323,-1201 2479,0 4492,871 6035,2613 1543,1744 2313,4053 2313,6931l0 431c0,1807 -352,3426 -1047,4874 -695,1443 -1673,2557 -2939,3339 -1266,784 -2708,1171 -4327,1171 -2473,0 -4487,-870 -6030,-2613 -1548,-1743 -2320,-4051 -2320,-6931l0 -412zm2068 577c0,2232 576,4069 1737,5500 1154,1431 2666,2150 4545,2150 1861,0 3367,-719 4521,-2150 1161,-1431 1738,-3321 1738,-5670l0 -395c0,-1432 -266,-2738 -795,-3922 -530,-1183 -1271,-2102 -2226,-2749 -954,-654 -2042,-978 -3273,-978 -1844,0 -3345,724 -4505,2167 -1161,1442 -1742,3333 -1742,5670l0 377z"/>
 </g>
</svg>
