<svg version="1.1" xmlns="http://www.w3.org/2000/svg" xmlns:xlink="http://www.w3.org/1999/xlink" viewBox="0 0 252 252"><g transform="translate(0.504,0.504) scale(0.996,0.996)"><g fill="none" fill-rule="nonzero" stroke="none" stroke-width="1" stroke-linecap="butt" stroke-linejoin="none" stroke-miterlimit="10" stroke-dasharray="" stroke-dashoffset="0" font-family="none" font-weight="none" font-size="none" text-anchor="none" style="mix-blend-mode: normal"><g fill="#b9b9b9" stroke="#ffffff" stroke-linejoin="round"><path d="M116.82563,53.29899c10.63188,0 19.75361,7.13565 21.23789,16.63101c1.4742,9.41724 -5.28208,18.20334 -12.38344,20.94258c-5.87412,2.26548 -9.88387,-0.09864 -13.42195,-2.19024c-3.45492,-2.0412 -7.03324,-4.14867 -13.33828,-3.22383c-4.41,0.65016 -10.42933,5.61842 -12.00937,11.70422c-1.52208,5.84892 1.2209,11.66717 7.92914,16.81805c0.62244,0.4788 0.92724,1.19125 0.94992,1.91953h80.68922c12.4614,0 22.59885,10.13985 22.59633,22.60125v37.9575c0,12.4614 -10.13493,22.60125 -22.59633,22.60125h-103.48242c-12.4614,0 -22.60125,-10.13985 -22.60125,-22.60125v-37.9575c0,-12.4614 10.13985,-22.60125 22.60125,-22.60125h16.31109c-8.6814,-7.94556 -8.36065,-15.82182 -7.27453,-20.0025c2.17728,-8.37648 10.07547,-14.52804 16.14867,-15.42516c8.07156,-1.18692 12.81814,1.62063 16.63594,3.87351c3.28104,1.9404 5.45025,3.21957 9.05133,1.82601c5.29704,-2.04372 10.26459,-8.74621 9.21375,-15.46453c-1.10628,-7.06104 -8.08711,-12.36867 -16.25695,-12.36867h-0.07383c-1.38852,0 -2.51496,-1.12656 -2.52,-2.51508c-0.00504,-1.39104 1.11912,-2.51988 2.51016,-2.52492zM55.44,138.50156v37.9575c0,9.68436 7.87941,17.56125 17.56125,17.56125h103.4775c9.68436,0 17.56125,-7.87941 17.56125,-17.56125v-37.9575c0,-9.68436 -7.87941,-17.56125 -17.56125,-17.56125h-103.4775c-9.68436,0 -17.56125,7.87941 -17.56125,17.56125zM83.16,132.28031c0,4.8636 -3.9564,8.82 -8.82,8.82c-4.8636,0 -8.82,-3.9564 -8.82,-8.82c0,-4.8636 3.9564,-8.82 8.82,-8.82c4.8636,0 8.82,3.9564 8.82,8.82zM103.32,132.28031c0,4.8636 -3.9564,8.82 -8.82,8.82c-4.8636,0 -8.82,-3.9564 -8.82,-8.82c0,-4.8636 3.9564,-8.82 8.82,-8.82c4.8636,0 8.82,3.9564 8.82,8.82zM123.48,132.28031c0,4.8636 -3.9564,8.82 -8.82,8.82c-4.8636,0 -8.82,-3.9564 -8.82,-8.82c0,-4.8636 3.9564,-8.82 8.82,-8.82c4.8636,0 8.82,3.9564 8.82,8.82zM146.16,132.28031c0,4.8636 -3.9564,8.82 -8.82,8.82c-4.8636,0 -8.82,-3.9564 -8.82,-8.82c0,-4.8636 3.9564,-8.82 8.82,-8.82c4.8636,0 8.82,3.9564 8.82,8.82zM166.32,132.28031c0,4.8636 -3.9564,8.82 -8.82,8.82c-4.8636,0 -8.82,-3.9564 -8.82,-8.82c0,-4.8636 3.9564,-8.82 8.82,-8.82c4.8636,0 8.82,3.9564 8.82,8.82zM186.48,132.28031c0,4.8636 -3.9564,8.82 -8.82,8.82c-4.8636,0 -8.82,-3.9564 -8.82,-8.82c0,-4.8636 3.9564,-8.82 8.82,-8.82c4.8636,0 8.82,3.9564 8.82,8.82zM68.04,132.28031c0,3.47256 2.82744,6.3 6.3,6.3c3.47256,0 6.3,-2.82744 6.3,-6.3c0,-3.47256 -2.82744,-6.3 -6.3,-6.3c-3.47256,0 -6.3,2.82744 -6.3,6.3zM88.2,132.28031c0,3.47256 2.82744,6.3 6.3,6.3c3.47256,0 6.3,-2.82744 6.3,-6.3c0,-3.47256 -2.82744,-6.3 -6.3,-6.3c-3.47256,0 -6.3,2.82744 -6.3,6.3zM108.36,132.28031c0,3.47256 2.82744,6.3 6.3,6.3c3.47256,0 6.3,-2.82744 6.3,-6.3c0,-3.47256 -2.82744,-6.3 -6.3,-6.3c-3.47256,0 -6.3,2.82744 -6.3,6.3zM131.04,132.28031c0,3.47256 2.82744,6.3 6.3,6.3c3.47256,0 6.3,-2.82744 6.3,-6.3c0,-3.47256 -2.82744,-6.3 -6.3,-6.3c-3.47256,0 -6.3,2.82744 -6.3,6.3zM151.2,132.28031c0,3.47256 2.82744,6.3 6.3,6.3c3.47256,0 6.3,-2.82744 6.3,-6.3c0,-3.47256 -2.82744,-6.3 -6.3,-6.3c-3.47256,0 -6.3,2.82744 -6.3,6.3zM171.36,132.28031c0,3.47256 2.82744,6.3 6.3,6.3c3.47256,0 6.3,-2.82744 6.3,-6.3c0,-3.47256 -2.82744,-6.3 -6.3,-6.3c-3.47256,0 -6.3,2.82744 -6.3,6.3zM83.16,152.44031c0,4.8636 -3.9564,8.82 -8.82,8.82c-4.8636,0 -8.82,-3.9564 -8.82,-8.82c0,-4.8636 3.9564,-8.82 8.82,-8.82c4.8636,0 8.82,3.9564 8.82,8.82zM103.32,152.44031c0,4.8636 -3.9564,8.82 -8.82,8.82c-4.8636,0 -8.82,-3.9564 -8.82,-8.82c0,-4.8636 3.9564,-8.82 8.82,-8.82c4.8636,0 8.82,3.9564 8.82,8.82zM123.48,152.44031c0,4.8636 -3.9564,8.82 -8.82,8.82c-4.8636,0 -8.82,-3.9564 -8.82,-8.82c0,-4.8636 3.9564,-8.82 8.82,-8.82c4.8636,0 8.82,3.9564 8.82,8.82zM146.16,152.44031c0,4.8636 -3.9564,8.82 -8.82,8.82c-4.8636,0 -8.82,-3.9564 -8.82,-8.82c0,-4.8636 3.9564,-8.82 8.82,-8.82c4.8636,0 8.82,3.9564 8.82,8.82zM166.32,152.44031c0,4.8636 -3.9564,8.82 -8.82,8.82c-4.8636,0 -8.82,-3.9564 -8.82,-8.82c0,-4.8636 3.9564,-8.82 8.82,-8.82c4.8636,0 8.82,3.9564 8.82,8.82zM186.48,152.44031c0,4.8636 -3.9564,8.82 -8.82,8.82c-4.8636,0 -8.82,-3.9564 -8.82,-8.82c0,-4.8636 3.9564,-8.82 8.82,-8.82c4.8636,0 8.82,3.9564 8.82,8.82zM68.04,152.44031c0,3.47256 2.82744,6.3 6.3,6.3c3.47256,0 6.3,-2.82744 6.3,-6.3c0,-3.47256 -2.82744,-6.3 -6.3,-6.3c-3.47256,0 -6.3,2.82744 -6.3,6.3zM88.2,152.44031c0,3.47256 2.82744,6.3 6.3,6.3c3.47256,0 6.3,-2.82744 6.3,-6.3c0,-3.47256 -2.82744,-6.3 -6.3,-6.3c-3.47256,0 -6.3,2.82744 -6.3,6.3zM108.36,152.44031c0,3.47256 2.82744,6.3 6.3,6.3c3.47256,0 6.3,-2.82744 6.3,-6.3c0,-3.47256 -2.82744,-6.3 -6.3,-6.3c-3.47256,0 -6.3,2.82744 -6.3,6.3zM131.04,152.44031c0,3.47256 2.82744,6.3 6.3,6.3c3.47256,0 6.3,-2.82744 6.3,-6.3c0,-3.47256 -2.82744,-6.3 -6.3,-6.3c-3.47256,0 -6.3,2.82744 -6.3,6.3zM151.2,152.44031c0,3.47256 2.82744,6.3 6.3,6.3c3.47256,0 6.3,-2.82744 6.3,-6.3c0,-3.47256 -2.82744,-6.3 -6.3,-6.3c-3.47256,0 -6.3,2.82744 -6.3,6.3zM171.36,152.44031c0,3.47256 2.82744,6.3 6.3,6.3c3.47256,0 6.3,-2.82744 6.3,-6.3c0,-3.47256 -2.82744,-6.3 -6.3,-6.3c-3.47256,0 -6.3,2.82744 -6.3,6.3zM160.89609,168.82031c4.37976,0 7.94391,3.56414 7.94391,7.9439v1.9786c0,4.25628 -3.55682,7.7175 -7.93406,7.7175c-0.69552,0 -1.26,-0.56448 -1.26,-1.26c0,-0.69552 0.56448,-1.26 1.26,-1.26c2.9862,0 5.41406,-2.32974 5.41406,-5.1975v-1.9786c0,-2.99124 -2.43267,-5.4239 -5.42391,-5.4239h-69.79219c-2.99124,0 -5.42391,2.43266 -5.42391,5.4239v1.75219c0,2.99124 2.43267,5.42391 5.42391,5.42391h56.31609c0.69552,0 1.26,0.56448 1.26,1.26c0,0.69552 -0.56448,1.26 -1.26,1.26h-56.31609c-4.37976,0 -7.94391,-3.56415 -7.94391,-7.94391v-1.75219c0,-4.37976 3.56415,-7.9439 7.94391,-7.9439zM149.94,183.94031h2.52c0.69552,0 1.26,0.56448 1.26,1.26c0,0.69552 -0.56448,1.26 -1.26,1.26h-2.52c-0.69552,0 -1.26,-0.56448 -1.26,-1.26c0,-0.69552 0.56448,-1.26 1.26,-1.26z"></path></g><path d="M0,252v-252h252v252z" fill="none" stroke="none" stroke-linejoin="miter"></path><g fill="#b9b9b9" stroke="none" stroke-linejoin="miter"><path d="M116.74195,53.29899c-1.39104,0.00504 -2.5152,1.13388 -2.51016,2.52492c0.00504,1.38852 1.13148,2.51508 2.52,2.51508h0.07383c8.16984,0 15.15067,5.30763 16.25695,12.36867c1.05084,6.71832 -3.91671,13.42081 -9.21375,15.46453c-3.60108,1.39356 -5.77029,0.11439 -9.05133,-1.82601c-3.8178,-2.25288 -8.56438,-5.06043 -16.63594,-3.87351c-6.0732,0.89712 -13.97139,7.04867 -16.14867,15.42516c-1.08612,4.18068 -1.40687,12.05694 7.27453,20.0025h-16.31109c-12.4614,0 -22.60125,10.13985 -22.60125,22.60125v37.9575c0,12.4614 10.13985,22.60125 22.60125,22.60125h103.48242c12.4614,0 22.59633,-10.13985 22.59633,-22.60125v-37.9575c0.00252,-12.4614 -10.13493,-22.60125 -22.59633,-22.60125h-80.68922c-0.02268,-0.72828 -0.32748,-1.44073 -0.94992,-1.91953c-6.70824,-5.15088 -9.45122,-10.96913 -7.92914,-16.81805c1.58004,-6.0858 7.59937,-11.05406 12.00937,-11.70422c6.30504,-0.92484 9.88336,1.18263 13.33828,3.22383c3.53808,2.0916 7.54783,4.45572 13.42195,2.19024c7.10136,-2.73924 13.85764,-11.52534 12.38344,-20.94258c-1.48428,-9.49536 -10.60601,-16.63101 -21.23789,-16.63101zM73.00125,120.94031h103.4775c9.68184,0 17.56125,7.87689 17.56125,17.56125v37.9575c0,9.68184 -7.87689,17.56125 -17.56125,17.56125h-103.4775c-9.68184,0 -17.56125,-7.87689 -17.56125,-17.56125v-37.9575c0,-9.68184 7.87689,-17.56125 17.56125,-17.56125zM74.34,123.46031c-4.8636,0 -8.82,3.9564 -8.82,8.82c0,4.8636 3.9564,8.82 8.82,8.82c4.8636,0 8.82,-3.9564 8.82,-8.82c0,-4.8636 -3.9564,-8.82 -8.82,-8.82zM94.5,123.46031c-4.8636,0 -8.82,3.9564 -8.82,8.82c0,4.8636 3.9564,8.82 8.82,8.82c4.8636,0 8.82,-3.9564 8.82,-8.82c0,-4.8636 -3.9564,-8.82 -8.82,-8.82zM114.66,123.46031c-4.8636,0 -8.82,3.9564 -8.82,8.82c0,4.8636 3.9564,8.82 8.82,8.82c4.8636,0 8.82,-3.9564 8.82,-8.82c0,-4.8636 -3.9564,-8.82 -8.82,-8.82zM137.34,123.46031c-4.8636,0 -8.82,3.9564 -8.82,8.82c0,4.8636 3.9564,8.82 8.82,8.82c4.8636,0 8.82,-3.9564 8.82,-8.82c0,-4.8636 -3.9564,-8.82 -8.82,-8.82zM157.5,123.46031c-4.8636,0 -8.82,3.9564 -8.82,8.82c0,4.8636 3.9564,8.82 8.82,8.82c4.8636,0 8.82,-3.9564 8.82,-8.82c0,-4.8636 -3.9564,-8.82 -8.82,-8.82zM177.66,123.46031c-4.8636,0 -8.82,3.9564 -8.82,8.82c0,4.8636 3.9564,8.82 8.82,8.82c4.8636,0 8.82,-3.9564 8.82,-8.82c0,-4.8636 -3.9564,-8.82 -8.82,-8.82zM74.34,125.98031c3.47256,0 6.3,2.82744 6.3,6.3c0,3.47256 -2.82744,6.3 -6.3,6.3c-3.47256,0 -6.3,-2.82744 -6.3,-6.3c0,-3.47256 2.82744,-6.3 6.3,-6.3zM94.5,125.98031c3.47256,0 6.3,2.82744 6.3,6.3c0,3.47256 -2.82744,6.3 -6.3,6.3c-3.47256,0 -6.3,-2.82744 -6.3,-6.3c0,-3.47256 2.82744,-6.3 6.3,-6.3zM114.66,125.98031c3.47256,0 6.3,2.82744 6.3,6.3c0,3.47256 -2.82744,6.3 -6.3,6.3c-3.47256,0 -6.3,-2.82744 -6.3,-6.3c0,-3.47256 2.82744,-6.3 6.3,-6.3zM137.34,125.98031c3.47256,0 6.3,2.82744 6.3,6.3c0,3.47256 -2.82744,6.3 -6.3,6.3c-3.47256,0 -6.3,-2.82744 -6.3,-6.3c0,-3.47256 2.82744,-6.3 6.3,-6.3zM157.5,125.98031c3.47256,0 6.3,2.82744 6.3,6.3c0,3.47256 -2.82744,6.3 -6.3,6.3c-3.47256,0 -6.3,-2.82744 -6.3,-6.3c0,-3.47256 2.82744,-6.3 6.3,-6.3zM177.66,125.98031c3.47256,0 6.3,2.82744 6.3,6.3c0,3.47256 -2.82744,6.3 -6.3,6.3c-3.47256,0 -6.3,-2.82744 -6.3,-6.3c0,-3.47256 2.82744,-6.3 6.3,-6.3zM74.34,143.62031c-4.8636,0 -8.82,3.9564 -8.82,8.82c0,4.8636 3.9564,8.82 8.82,8.82c4.8636,0 8.82,-3.9564 8.82,-8.82c0,-4.8636 -3.9564,-8.82 -8.82,-8.82zM94.5,143.62031c-4.8636,0 -8.82,3.9564 -8.82,8.82c0,4.8636 3.9564,8.82 8.82,8.82c4.8636,0 8.82,-3.9564 8.82,-8.82c0,-4.8636 -3.9564,-8.82 -8.82,-8.82zM114.66,143.62031c-4.8636,0 -8.82,3.9564 -8.82,8.82c0,4.8636 3.9564,8.82 8.82,8.82c4.8636,0 8.82,-3.9564 8.82,-8.82c0,-4.8636 -3.9564,-8.82 -8.82,-8.82zM137.34,143.62031c-4.8636,0 -8.82,3.9564 -8.82,8.82c0,4.8636 3.9564,8.82 8.82,8.82c4.8636,0 8.82,-3.9564 8.82,-8.82c0,-4.8636 -3.9564,-8.82 -8.82,-8.82zM157.5,143.62031c-4.8636,0 -8.82,3.9564 -8.82,8.82c0,4.8636 3.9564,8.82 8.82,8.82c4.8636,0 8.82,-3.9564 8.82,-8.82c0,-4.8636 -3.9564,-8.82 -8.82,-8.82zM177.66,143.62031c-4.8636,0 -8.82,3.9564 -8.82,8.82c0,4.8636 3.9564,8.82 8.82,8.82c4.8636,0 8.82,-3.9564 8.82,-8.82c0,-4.8636 -3.9564,-8.82 -8.82,-8.82zM74.34,146.14031c3.47256,0 6.3,2.82744 6.3,6.3c0,3.47256 -2.82744,6.3 -6.3,6.3c-3.47256,0 -6.3,-2.82744 -6.3,-6.3c0,-3.47256 2.82744,-6.3 6.3,-6.3zM94.5,146.14031c3.47256,0 6.3,2.82744 6.3,6.3c0,3.47256 -2.82744,6.3 -6.3,6.3c-3.47256,0 -6.3,-2.82744 -6.3,-6.3c0,-3.47256 2.82744,-6.3 6.3,-6.3zM114.66,146.14031c3.47256,0 6.3,2.82744 6.3,6.3c0,3.47256 -2.82744,6.3 -6.3,6.3c-3.47256,0 -6.3,-2.82744 -6.3,-6.3c0,-3.47256 2.82744,-6.3 6.3,-6.3zM137.34,146.14031c3.47256,0 6.3,2.82744 6.3,6.3c0,3.47256 -2.82744,6.3 -6.3,6.3c-3.47256,0 -6.3,-2.82744 -6.3,-6.3c0,-3.47256 2.82744,-6.3 6.3,-6.3zM157.5,146.14031c3.47256,0 6.3,2.82744 6.3,6.3c0,3.47256 -2.82744,6.3 -6.3,6.3c-3.47256,0 -6.3,-2.82744 -6.3,-6.3c0,-3.47256 2.82744,-6.3 6.3,-6.3zM177.66,146.14031c3.47256,0 6.3,2.82744 6.3,6.3c0,3.47256 -2.82744,6.3 -6.3,6.3c-3.47256,0 -6.3,-2.82744 -6.3,-6.3c0,-3.47256 2.82744,-6.3 6.3,-6.3zM91.10391,168.82031c-4.37976,0 -7.94391,3.56414 -7.94391,7.9439v1.75219c0,4.37976 3.56415,7.94391 7.94391,7.94391h56.31609c0.69552,0 1.26,-0.56448 1.26,-1.26c0,-0.69552 -0.56448,-1.26 -1.26,-1.26h-56.31609c-2.99124,0 -5.42391,-2.43267 -5.42391,-5.42391v-1.75219c0,-2.99124 2.43267,-5.4239 5.42391,-5.4239h69.79219c2.99124,0 5.42391,2.43266 5.42391,5.4239v1.9786c0,2.86776 -2.42786,5.1975 -5.41406,5.1975c-0.69552,0 -1.26,0.56448 -1.26,1.26c0,0.69552 0.56448,1.26 1.26,1.26c4.37724,0 7.93406,-3.46122 7.93406,-7.7175v-1.9786c0,-4.37976 -3.56415,-7.9439 -7.94391,-7.9439zM148.68,185.20031c0,0.69552 0.56448,1.26 1.26,1.26h2.52c0.69552,0 1.26,-0.56448 1.26,-1.26c0,-0.69552 -0.56448,-1.26 -1.26,-1.26h-2.52c-0.69552,0 -1.26,0.56448 -1.26,1.26z"></path></g><path d="" fill="none" stroke="none" stroke-linejoin="miter"></path></g></g></svg>