<?xml version="1.0" encoding="UTF-8"?>
<!DOCTYPE svg PUBLIC "-//W3C//DTD SVG 1.1//EN" "http://www.w3.org/Graphics/SVG/1.1/DTD/svg11.dtd">
<!-- Creator: CorelDRAW 2018 (64-Bit) -->
<svg xmlns="http://www.w3.org/2000/svg" xml:space="preserve" width="17.5594mm" height="9.8578mm" version="1.1" style="shape-rendering:geometricPrecision; text-rendering:geometricPrecision; image-rendering:optimizeQuality; fill-rule:evenodd; clip-rule:evenodd"
viewBox="0 0 5.05 2.84"
 xmlns:xlink="http://www.w3.org/1999/xlink">
 <defs>
  <style type="text/css">
   <![CDATA[
    .str0 {stroke:#0788F8;stroke-width:0.02;stroke-miterlimit:22.9256}
    .fil0 {fill:none}
    .fil2 {fill:#0788F8}
    .fil1 {fill:#0788F8;fill-rule:nonzero}
   ]]>
  </style>
 </defs>
 <g id="Слой_x0020_1">
  <metadata id="CorelCorpID_0Corel-Layer"/>
  <rect class="fil0" x="-0" width="5.05" height="2.84"/>
  <path class="fil1" d="M3.99 2.24c0.02,0.02 0.07,0.01 0.08,-0.02 0.01,-0.05 0,-0.15 0,-0.21 -0,-0.11 0,-0.21 0,-0.32 0,-0.03 -0.01,-0.1 -0.05,-0.1 -0.04,0 -0.06,0.07 -0.06,0.1 -0,0.03 0,0.08 0,0.11 0,0.01 0,0.09 -0.01,0.09 -0.01,-0 -0.06,-0.06 -0.07,-0.08 -0.04,-0.05 -0.09,-0.11 -0.13,-0.16 -0.03,-0.03 -0.08,-0.07 -0.12,-0.05 -0.04,0.02 -0.01,0.06 0,0.08 0.02,0.02 0.05,0.05 0.07,0.07 0.02,0.02 0.09,0.1 0.1,0.12 0.01,0.03 -0.01,0.05 -0.03,0.08 -0.05,0.06 -0.09,0.13 -0.14,0.2 -0.01,0.02 -0.05,0.08 -0.01,0.09 0.04,0.01 0.1,-0.04 0.13,-0.07 0.02,-0.02 0.04,-0.06 0.06,-0.08 0.01,-0.02 0.06,-0.1 0.08,-0.1 0.02,-0.01 0.05,0.02 0.06,0.04 0.04,0.05 -0.01,0.17 0.04,0.22z"/>
  <path class="fil1" d="M3.54 1.74c0.03,0.07 0.03,0.15 0.03,0.22 -0.01,0.16 -0.11,0.29 -0.28,0.28 -0.16,-0.01 -0.24,-0.15 -0.24,-0.3 -0,-0.1 0.01,-0.2 0.08,-0.27 0.1,-0.11 0.3,-0.1 0.39,0.02 0.01,0.02 0.02,0.03 0.03,0.05zm-0.5 -0.46c0,-0.07 -0.01,-0.32 0.01,-0.37 0.01,-0.03 0.04,-0.05 0.07,-0.04 0.05,0.01 0.04,0.07 0.04,0.11 -0,0.1 -0.01,0.2 -0.01,0.3 -0,0.04 -0.01,0.13 0.04,0.14 0.04,0.01 0.15,0.02 0.2,0.02 0.04,0 0.16,-0.01 0.19,-0.04 0.06,-0.04 0.11,-0.14 0.16,-0.2 0.05,-0.07 0.14,-0.18 0.02,-0.24 -0.07,-0.03 -0.11,0.02 -0.15,0.06 -0.02,0.02 -0.03,0.02 -0.06,0 -0.04,-0.05 0.02,-0.12 0.06,-0.14 0.14,-0.08 0.36,0.02 0.3,0.21 -0.01,0.03 -0.03,0.06 -0.05,0.09 -0.02,0.03 -0.12,0.19 -0.12,0.2 0,0.05 0.16,0.03 0.2,0.03 0.17,-0.02 0.45,-0.07 0.6,0 0.14,0.06 0.16,0.2 0.18,0.33 0,0.02 0.01,0.05 0.01,0.07 0.01,0.07 0.01,0.12 -0.01,0.19 -0.03,0.16 -0.16,0.25 -0.31,0.22 -0.14,-0.03 -0.2,-0.17 -0.2,-0.3 -0,-0.11 0.02,-0.23 0.12,-0.3 0.06,-0.04 0.14,-0.06 0.21,-0.04 0.02,0.01 0.09,0.04 0.07,-0.02 -0.03,-0.07 -0.14,-0.09 -0.21,-0.09 -0.13,-0.01 -0.29,0.01 -0.43,0.02 -0.25,0.01 -0.31,0.02 -0.56,0.03 -0.04,0 -0.33,-0.01 -0.35,-0.04 -0.02,-0.02 -0.01,-0.07 -0.01,-0.1l0 -0c0,-0.03 0,-0.07 0,-0.1l0 -0zm0.11 0.61l0 0.04c0,0.09 0.03,0.2 0.13,0.22 0.12,0.01 0.16,-0.08 0.17,-0.18 0,-0.05 0,-0.12 -0.01,-0.17 -0.02,-0.08 -0.08,-0.13 -0.17,-0.12 -0.1,0.02 -0.13,0.13 -0.13,0.21zm1.3 -0.21c-0.13,0.02 -0.14,0.18 -0.13,0.28 0.01,0.11 0.06,0.21 0.18,0.18 0.12,-0.02 0.13,-0.18 0.12,-0.28 -0.01,-0.1 -0.05,-0.2 -0.17,-0.18z"/>
  <path class="fil2 str0" d="M1.49 0.53c0.35,-0.03 0.7,0.12 0.91,0.38 0.04,0.04 0.07,0.1 0.1,0.15 0.06,0.12 0.1,0.23 0.12,0.39 0.02,0.22 -0.03,0.44 -0.14,0.62 -0.09,0.15 -0.24,0.29 -0.4,0.37 -0.12,0.06 -0.26,0.11 -0.4,0.12 -0.34,0.02 -0.61,-0.09 -0.79,-0.24 -0.09,-0.08 -0.17,-0.18 -0.23,-0.29 -0.05,-0.1 -0.14,-0.24 -0.07,-0.35 0.07,-0.12 0.32,-0.33 0.44,-0.4 0.12,-0.07 0.24,-0.11 0.38,-0.14 0.3,-0.05 0.58,0.06 0.79,0.27 0.06,0.06 0.16,0.16 0.1,0.25 -0.07,0.11 -0.27,0.22 -0.4,0.27 -0.27,0.09 -0.56,0.07 -0.76,-0.14 -0.14,-0.14 -0.07,-0.26 0.08,-0.35 0.15,-0.08 0.45,-0.14 0.57,0.02 0.13,0.18 -0.08,0.44 -0.27,0.27 -0.1,-0.09 0.06,-0.09 0.01,-0.19 -0.04,-0.07 -0.12,-0.08 -0.15,0.01 -0.03,0.1 0.01,0.21 0.09,0.27 0.11,0.08 0.26,0.09 0.37,0.02 0.14,-0.09 0.18,-0.3 0.08,-0.44 -0.12,-0.16 -0.36,-0.21 -0.55,-0.16 -0.16,0.04 -0.57,0.28 -0.47,0.48 0.08,0.14 0.35,0.29 0.51,0.34 0.35,0.1 0.72,-0.01 0.95,-0.29 0.1,-0.12 0.15,-0.2 0.03,-0.33 -0.14,-0.15 -0.28,-0.27 -0.48,-0.35 -0.12,-0.05 -0.26,-0.08 -0.41,-0.07 -0.14,0.01 -0.28,0.04 -0.39,0.1 -0.18,0.08 -0.26,0.15 -0.4,0.29 -0.04,0.04 -0.17,0.2 -0.18,0.05 -0.01,-0.09 0.07,-0.3 0.11,-0.38 0.02,-0.04 0.05,-0.08 0.07,-0.12l0.01 -0.01c0.04,-0.05 0.05,-0.06 0.09,-0.1 0.01,-0.01 0.02,-0.02 0.03,-0.03 0.01,-0.01 0.01,-0.01 0.02,-0.01 0.08,-0.06 0.11,-0.09 0.21,-0.14 0.1,-0.05 0.27,-0.11 0.4,-0.12zm1.25 1.06c0.01,-0.17 -0.02,-0.34 -0.09,-0.48 -0.04,-0.09 -0.11,-0.21 -0.18,-0.29 -0.04,-0.04 -0.04,-0.05 -0.09,-0.09 -0.05,-0.05 -0.06,-0.05 -0.12,-0.1 -0.18,-0.13 -0.4,-0.21 -0.64,-0.22 -0.27,-0.01 -0.56,0.09 -0.76,0.25l-0.08 0.07 -0.14 0.15c-0.04,0.05 -0.08,0.11 -0.11,0.17 -0.2,0.44 -0.16,0.81 0.12,1.19 0.02,0.03 0.05,0.05 0.07,0.08 0.02,0.02 0.07,0.08 0.09,0.09l0.06 0.05c0.18,0.13 0.4,0.21 0.64,0.22 0.25,0.01 0.48,-0.06 0.68,-0.18 0.07,-0.04 0.09,-0.06 0.14,-0.11 0.04,-0.03 0.12,-0.12 0.16,-0.17 0.14,-0.18 0.21,-0.39 0.22,-0.63z"/>
 </g>
</svg>
