<?xml version="1.0" encoding="UTF-8"?>
<!DOCTYPE svg PUBLIC "-//W3C//DTD SVG 1.1//EN" "http://www.w3.org/Graphics/SVG/1.1/DTD/svg11.dtd">
<!-- Creator: CorelDRAW 2018 (64-Bit) -->
<svg xmlns="http://www.w3.org/2000/svg" xml:space="preserve" width="42.107mm" height="8.369mm" version="1.1" style="shape-rendering:geometricPrecision; text-rendering:geometricPrecision; image-rendering:optimizeQuality; fill-rule:evenodd; clip-rule:evenodd"
viewBox="0 0 35.41 7.04"
 xmlns:xlink="http://www.w3.org/1999/xlink">
 <defs>
  <style type="text/css">
   <![CDATA[
    .str0 {stroke:#0788F8;stroke-width:0.06;stroke-miterlimit:22.9256}
    .fil0 {fill:none}
    .fil2 {fill:#0788F8}
    .fil1 {fill:#0788F8;fill-rule:nonzero}
   ]]>
  </style>
 </defs>
 <g id="Слой_x0020_1">
  <metadata id="CorelCorpID_0Corel-Layer"/>
  <rect class="fil0" x="-0" y="-0" width="35.41" height="7.04"/>
  <path class="fil1" d="M12.01 6.44c0.09,0.08 0.31,0.04 0.36,-0.1 0.04,-0.22 0.01,-0.66 0.01,-0.9 -0,-0.45 0.01,-0.9 0.01,-1.35 0,-0.13 -0.03,-0.41 -0.22,-0.41 -0.19,0 -0.26,0.28 -0.27,0.42 -0.01,0.13 0.01,0.32 0.01,0.46 0,0.04 0.01,0.37 -0.04,0.37 -0.06,-0 -0.24,-0.26 -0.29,-0.32 -0.18,-0.22 -0.37,-0.45 -0.55,-0.67 -0.11,-0.13 -0.33,-0.29 -0.51,-0.22 -0.17,0.07 -0.06,0.25 0.02,0.34 0.09,0.11 0.19,0.2 0.29,0.31 0.08,0.1 0.38,0.43 0.42,0.51 0.06,0.13 -0.06,0.22 -0.14,0.32 -0.21,0.27 -0.4,0.56 -0.6,0.84 -0.06,0.08 -0.22,0.33 -0.04,0.37 0.18,0.05 0.43,-0.15 0.54,-0.29 0.08,-0.1 0.17,-0.24 0.24,-0.35 0.05,-0.07 0.27,-0.41 0.33,-0.44 0.1,-0.05 0.21,0.1 0.26,0.17 0.16,0.23 -0.03,0.72 0.17,0.93z"/>
  <path class="fil1" d="M10.07 4.32c0.13,0.3 0.15,0.62 0.13,0.94 -0.04,0.7 -0.45,1.26 -1.2,1.2 -0.7,-0.05 -1.03,-0.64 -1.04,-1.28 -0.01,-0.42 0.03,-0.85 0.34,-1.17 0.43,-0.47 1.26,-0.43 1.65,0.09 0.05,0.07 0.09,0.14 0.13,0.22zm-2.13 -1.94c0,-0.29 -0.02,-1.36 0.04,-1.57 0.04,-0.14 0.16,-0.21 0.31,-0.18 0.21,0.04 0.18,0.29 0.18,0.45 -0,0.43 -0.04,0.85 -0.04,1.28 -0,0.15 -0.03,0.54 0.16,0.6 0.17,0.06 0.62,0.09 0.84,0.09 0.18,0 0.69,-0.06 0.82,-0.17 0.24,-0.19 0.48,-0.6 0.68,-0.85 0.22,-0.29 0.59,-0.77 0.09,-1.01 -0.29,-0.14 -0.46,0.09 -0.65,0.27 -0.09,0.08 -0.15,0.1 -0.24,0 -0.19,-0.19 0.09,-0.52 0.26,-0.61 0.58,-0.33 1.54,0.1 1.26,0.92 -0.05,0.14 -0.12,0.26 -0.2,0.38 -0.08,0.12 -0.52,0.81 -0.52,0.87 0.01,0.2 0.69,0.13 0.85,0.11 0.71,-0.08 1.93,-0.28 2.58,0.01 0.58,0.27 0.7,0.85 0.78,1.43 0.01,0.1 0.02,0.2 0.03,0.29 0.03,0.31 0.02,0.52 -0.03,0.83 -0.12,0.67 -0.67,1.07 -1.34,0.93 -0.62,-0.13 -0.87,-0.72 -0.87,-1.3 -0,-0.49 0.07,-0.97 0.5,-1.27 0.24,-0.17 0.61,-0.24 0.89,-0.15 0.09,0.03 0.38,0.15 0.29,-0.07 -0.12,-0.28 -0.61,-0.37 -0.88,-0.39 -0.58,-0.05 -1.25,0.05 -1.84,0.08 -1.06,0.05 -1.33,0.1 -2.39,0.11 -0.17,0 -1.39,-0.02 -1.5,-0.18 -0.07,-0.11 -0.06,-0.3 -0.06,-0.43l0 -0.02c0,-0.14 0.01,-0.28 0.01,-0.43l0 -0.02zm0.49 2.62l0 0.16c0,0.39 0.11,0.87 0.57,0.93 0.5,0.06 0.69,-0.33 0.73,-0.76 0.02,-0.21 0.01,-0.53 -0.04,-0.73 -0.09,-0.35 -0.34,-0.56 -0.71,-0.51 -0.43,0.07 -0.54,0.54 -0.54,0.91zm5.53 -0.91c-0.56,0.08 -0.59,0.76 -0.56,1.2 0.03,0.45 0.26,0.89 0.79,0.79 0.52,-0.1 0.54,-0.79 0.51,-1.2 -0.03,-0.45 -0.22,-0.84 -0.73,-0.79z"/>
  <path class="fil2 str0" d="M3.32 0.44c1.05,-0.08 2.12,0.35 2.77,1.15 0.11,0.14 0.23,0.29 0.31,0.46 0.19,0.37 0.32,0.71 0.36,1.18 0.06,0.67 -0.09,1.32 -0.43,1.88 -0.28,0.45 -0.73,0.89 -1.21,1.13 -0.35,0.17 -0.79,0.34 -1.2,0.36 -1.01,0.06 -1.83,-0.27 -2.4,-0.74 -0.28,-0.23 -0.52,-0.55 -0.69,-0.87 -0.15,-0.29 -0.41,-0.74 -0.2,-1.06 0.22,-0.35 0.95,-1 1.32,-1.22 0.37,-0.23 0.73,-0.34 1.16,-0.43 0.91,-0.16 1.74,0.18 2.4,0.81 0.19,0.18 0.48,0.48 0.31,0.76 -0.2,0.35 -0.83,0.68 -1.2,0.81 -0.8,0.28 -1.69,0.2 -2.31,-0.42 -0.41,-0.43 -0.23,-0.79 0.24,-1.05 0.45,-0.25 1.36,-0.44 1.71,0.05 0.39,0.54 -0.23,1.32 -0.81,0.83 -0.31,-0.26 0.19,-0.26 0.02,-0.57 -0.11,-0.2 -0.38,-0.25 -0.46,0.03 -0.09,0.31 0.02,0.64 0.28,0.83 0.32,0.25 0.77,0.27 1.12,0.06 0.42,-0.28 0.55,-0.92 0.25,-1.34 -0.36,-0.49 -1.09,-0.65 -1.65,-0.49 -0.47,0.13 -1.74,0.84 -1.41,1.45 0.23,0.43 1.07,0.89 1.53,1.02 1.05,0.3 2.18,-0.02 2.87,-0.88 0.29,-0.37 0.45,-0.6 0.08,-0.99 -0.43,-0.46 -0.85,-0.82 -1.44,-1.07 -0.36,-0.15 -0.8,-0.25 -1.24,-0.22 -0.43,0.02 -0.83,0.13 -1.18,0.29 -0.55,0.25 -0.8,0.45 -1.22,0.87 -0.11,0.11 -0.51,0.59 -0.54,0.16 -0.02,-0.28 0.2,-0.9 0.34,-1.15 0.07,-0.12 0.14,-0.23 0.22,-0.35l0.02 -0.03c0.11,-0.15 0.15,-0.18 0.28,-0.31 0.04,-0.04 0.06,-0.05 0.1,-0.1 0.02,-0.02 0.03,-0.03 0.05,-0.04 0.23,-0.18 0.34,-0.27 0.64,-0.43 0.3,-0.15 0.81,-0.33 1.21,-0.36zm3.79 3.2c0.02,-0.53 -0.07,-1.01 -0.26,-1.45 -0.12,-0.28 -0.34,-0.64 -0.55,-0.87 -0.12,-0.13 -0.12,-0.14 -0.26,-0.28 -0.16,-0.15 -0.17,-0.16 -0.36,-0.3 -0.55,-0.39 -1.2,-0.64 -1.93,-0.67 -0.82,-0.03 -1.69,0.26 -2.3,0.75l-0.23 0.2 -0.42 0.46c-0.12,0.16 -0.23,0.33 -0.33,0.53 -0.6,1.32 -0.47,2.44 0.38,3.61 0.07,0.09 0.14,0.17 0.21,0.24 0.05,0.05 0.23,0.23 0.28,0.27l0.18 0.14c0.54,0.41 1.22,0.63 1.94,0.67 0.77,0.04 1.46,-0.18 2.07,-0.56 0.21,-0.13 0.27,-0.19 0.44,-0.32 0.11,-0.09 0.37,-0.37 0.47,-0.51 0.41,-0.55 0.64,-1.19 0.67,-1.91z"/>
 </g>
</svg>
