<svg version="1.1" xmlns="http://www.w3.org/2000/svg" xmlns:xlink="http://www.w3.org/1999/xlink" viewBox="0 0 252 252"><g transform=""><g fill="none" fill-rule="nonzero" stroke="none" stroke-width="1" stroke-linecap="butt" stroke-linejoin="miter" stroke-miterlimit="10" stroke-dasharray="" stroke-dashoffset="0" font-family="none" font-weight="none" font-size="none" text-anchor="none" style="mix-blend-mode: normal"><path d="M0,252v-252h252v252z" fill="none"></path><path d="M0,126c0,-69.58788 56.41212,-126 126,-126c69.58788,0 126,56.41212 126,126c0,69.58788 -56.41212,126 -126,126c-69.58788,0 -126,-56.41212 -126,-126zM126,241.92c64.02085,0 115.92,-51.89915 115.92,-115.92c0,-64.02085 -51.89915,-115.92 -115.92,-115.92c-64.02085,0 -115.92,51.89915 -115.92,115.92c0,64.02085 51.89915,115.92 115.92,115.92z" fill="#b9b9b9"></path><g fill="#b9b9b9"><path d="M96.2325,59.85c-20.09637,0 -36.3825,16.28613 -36.3825,36.3825c0,8.14307 2.70419,15.62659 7.22224,21.69255c-0.35721,2.646 -0.60724,5.32973 -0.60724,8.07495c0,32.88317 26.65183,59.535 59.535,59.535c2.74522,0 5.42895,-0.25003 8.07495,-0.60724c6.06596,4.51805 13.54948,7.22224 21.69255,7.22224c20.09637,0 36.3825,-16.28613 36.3825,-36.3825c0,-8.14306 -2.70419,-15.62659 -7.22224,-21.69255c0.35721,-2.646 0.60724,-5.32973 0.60724,-8.07495c0,-32.88317 -26.65183,-59.535 -59.535,-59.535c-2.74523,0 -5.42895,0.25003 -8.07495,0.60724c-6.06596,-4.51804 -13.54948,-7.22224 -21.69255,-7.22224zM96.2325,73.08c4.9811,0 9.75671,1.58967 13.79848,4.59949l4.31525,3.22998l5.34885,-0.72352c2.47401,-0.33737 4.47918,-0.49096 6.30492,-0.49096c25.5339,0 46.305,20.7711 46.305,46.305c0,1.82574 -0.15359,3.8243 -0.49096,6.30492l-0.72352,5.34885l3.22999,4.31525c3.00983,4.04177 4.59949,8.81738 4.59949,13.79848c0,12.76695 -10.38555,23.1525 -23.1525,23.1525c-4.98109,0 -9.75671,-1.58967 -13.79848,-4.59949l-4.31525,-3.22999l-5.34885,0.72352c-2.48063,0.33075 -4.47918,0.49096 -6.30492,0.49096c-25.5339,0 -46.305,-20.7711 -46.305,-46.305c0,-1.82574 0.15359,-3.8243 0.49096,-6.30492l0.72352,-5.34885l-3.22998,-4.31525c-3.00983,-4.04176 -4.59949,-8.81738 -4.59949,-13.79848c0,-12.76695 10.38555,-23.1525 23.1525,-23.1525zM125.00516,92.925c-24.8724,0 -26.70548,14.61191 -26.70548,18.21709c0,7.17066 4.11184,12.74039 11.13697,15.43931c7.46834,2.87091 16.53316,4.59246 21.67963,5.99484c8.05045,2.2028 7.02844,6.63856 7.02844,7.28683c-0.00001,6.81345 -9.33191,8.56828 -13.30752,8.19123c-4.4982,-0.42336 -9.05552,0.86191 -13.79848,-8.90183c-0.84672,-1.74636 -2.40331,-5.56849 -7.08012,-5.56849c-2.02419,0 -7.08012,1.54057 -7.08012,6.36952c0,9.47268 10.57645,19.12148 28.97939,19.12148c9.61821,0 27.55788,-3.32951 27.57111,-20.58143c0,-15.02266 -15.15238,-17.65885 -26.29204,-20.52976c-3.04951,-0.78718 -14.41863,-2.04393 -14.41863,-7.99743c0,-1.7662 2.47205,-6.00776 11.38245,-6.00776c9.17501,0 11.17305,4.29531 12.39021,6.52456c1.01871,1.7662 1.85581,3.13065 2.88114,3.78553c4.06822,2.5997 7.77924,0.60703 9.09563,-0.76227c1.31638,-1.3693 1.97675,-2.87959 1.97675,-4.59949c0,-7.48156 -8.84891,-15.98194 -25.43933,-15.98194z"></path></g><path d="" fill="none"></path><path d="M126,252c-69.58788,0 -126,-56.41212 -126,-126v0c0,-69.58788 56.41212,-126 126,-126v0c69.58788,0 126,56.41212 126,126v0c0,69.58788 -56.41212,126 -126,126z" fill="none"></path><path d="M126,241.92c-64.02085,0 -115.92,-51.89915 -115.92,-115.92v0c0,-64.02085 51.89915,-115.92 115.92,-115.92h0c64.02085,0 115.92,51.89915 115.92,115.92v0c0,64.02085 -51.89915,115.92 -115.92,115.92z" fill="none"></path><path d="M126,252c-69.58788,0 -126,-56.41212 -126,-126v0c0,-69.58788 56.41212,-126 126,-126v0c69.58788,0 126,56.41212 126,126v0c0,69.58788 -56.41212,126 -126,126z" fill="none"></path><path d="M126,241.92c-64.02085,0 -115.92,-51.89915 -115.92,-115.92v0c0,-64.02085 51.89915,-115.92 115.92,-115.92h0c64.02085,0 115.92,51.89915 115.92,115.92v0c0,64.02085 -51.89915,115.92 -115.92,115.92z" fill="none"></path><path d="M126,252c-69.58788,0 -126,-56.41212 -126,-126v0c0,-69.58788 56.41212,-126 126,-126v0c69.58788,0 126,56.41212 126,126v0c0,69.58788 -56.41212,126 -126,126z" fill="none"></path><path d="M126,241.92c-64.02085,0 -115.92,-51.89915 -115.92,-115.92v0c0,-64.02085 51.89915,-115.92 115.92,-115.92h0c64.02085,0 115.92,51.89915 115.92,115.92v0c0,64.02085 -51.89915,115.92 -115.92,115.92z" fill="none"></path><path d="M126,252c-69.58788,0 -126,-56.41212 -126,-126v0c0,-69.58788 56.41212,-126 126,-126v0c69.58788,0 126,56.41212 126,126v0c0,69.58788 -56.41212,126 -126,126z" fill="none"></path><path d="M126,241.92c-64.02085,0 -115.92,-51.89915 -115.92,-115.92v0c0,-64.02085 51.89915,-115.92 115.92,-115.92h0c64.02085,0 115.92,51.89915 115.92,115.92v0c0,64.02085 -51.89915,115.92 -115.92,115.92z" fill="none"></path><path d="M126,252c-69.58788,0 -126,-56.41212 -126,-126v0c0,-69.58788 56.41212,-126 126,-126v0c69.58788,0 126,56.41212 126,126v0c0,69.58788 -56.41212,126 -126,126z" fill="none"></path><path d="M126,241.92c-64.02085,0 -115.92,-51.89915 -115.92,-115.92v0c0,-64.02085 51.89915,-115.92 115.92,-115.92h0c64.02085,0 115.92,51.89915 115.92,115.92v0c0,64.02085 -51.89915,115.92 -115.92,115.92z" fill="none"></path></g></g></svg>