<?xml version="1.0" encoding="UTF-8"?>
<!DOCTYPE svg PUBLIC "-//W3C//DTD SVG 1.1//EN" "http://www.w3.org/Graphics/SVG/1.1/DTD/svg11.dtd">
<!-- Creator: CorelDRAW 2018 (64-Bit) -->
<svg xmlns="http://www.w3.org/2000/svg" xml:space="preserve" width="31.1327mm" height="14.4638mm" version="1.1" style="shape-rendering:geometricPrecision; text-rendering:geometricPrecision; image-rendering:optimizeQuality; fill-rule:evenodd; clip-rule:evenodd"
viewBox="0 0 16.26 7.55"
 xmlns:xlink="http://www.w3.org/1999/xlink">
 <defs>
  <style type="text/css">
   <![CDATA[
    .str0 {stroke:white;stroke-width:0.43;stroke-linejoin:round;stroke-miterlimit:22.9256}
    .fil1 {fill:none}
    .fil0 {fill:#B9B9B9}
    .fil2 {fill:#B9B9B9;fill-rule:nonzero}
   ]]>
  </style>
 </defs>
 <g id="Слой_x0020_1">
  <metadata id="CorelCorpID_0Corel-Layer"/>
  <g id="_2431573114528">
   <g id="surface1_x0020_1">
    <path class="fil0 str0" d="M4.88 0.8c0.4,0.22 0.78,0.43 1.45,0.43l0.28 0 0 0.28c0,0.88 -0.12,1.64 -0.3,2.28l-0.6 0c0.18,-0.56 0.31,-1.22 0.33,-2 -0.64,-0.05 -1.07,-0.29 -1.44,-0.49 -0.35,-0.19 -0.65,-0.36 -1.12,-0.36 -0.47,0 -0.77,0.16 -1.12,0.36 -0.37,0.2 -0.79,0.44 -1.44,0.49 0.01,0.25 0.04,0.49 0.06,0.71 -0.21,0.23 -0.35,0.53 -0.35,0.86l0 0.37c-0.18,-0.63 -0.28,-1.36 -0.28,-2.22l0 -0.28 0.28 0c0.67,0 1.05,-0.21 1.45,-0.43 0.39,-0.21 0.79,-0.43 1.4,-0.43 0.61,0 1.01,0.22 1.4,0.43l0 0zm-2.43 2.07c0.12,0.13 0.18,0.3 0.18,0.46l-0.57 0c0,-0.02 -0.01,-0.06 -0.03,-0.08 -0.02,-0.02 -0.04,-0.04 -0.12,-0.04 -0.08,0 -0.14,0.06 -0.14,0.14 0,0.08 0.06,0.14 0.14,0.14 0.39,0 0.71,0.32 0.71,0.71 0,0.37 -0.31,0.71 -0.71,0.71 -0.21,0 -0.4,-0.06 -0.53,-0.2 -0.13,-0.14 -0.18,-0.32 -0.18,-0.48l0.57 0c0,0.07 0.02,0.08 0.02,0.08 0,0 0.02,0.03 0.12,0.03 0.12,0 0.14,-0.04 0.14,-0.14 0,-0.08 -0.06,-0.14 -0.14,-0.14 -0.39,0 -0.71,-0.32 -0.71,-0.71 0,-0.39 0.32,-0.71 0.71,-0.71 0.22,0 0.41,0.09 0.53,0.22l0 0zm1.71 0c0.12,0.13 0.18,0.3 0.18,0.46l-0.57 0c0,-0.02 -0.01,-0.06 -0.03,-0.08 -0.02,-0.02 -0.04,-0.04 -0.12,-0.04 -0.08,0 -0.14,0.06 -0.14,0.14 0,0.08 0.06,0.14 0.14,0.14 0.39,0 0.71,0.32 0.71,0.71 0,0.37 -0.31,0.71 -0.71,0.71 -0.21,0 -0.4,-0.06 -0.53,-0.2 -0.13,-0.14 -0.18,-0.32 -0.18,-0.48l0.57 0c0,0.07 0.02,0.08 0.02,0.08 0,0 0.02,0.03 0.12,0.03 0.12,0 0.14,-0.04 0.14,-0.14 0,-0.08 -0.06,-0.14 -0.14,-0.14 -0.39,0 -0.71,-0.32 -0.71,-0.71 0,-0.39 0.32,-0.71 0.71,-0.71 0.22,0 0.41,0.09 0.53,0.22l0 0zm1.03 -0.22l0 1.71 0.57 0 0 0.57 -1.14 0 0 -2.28 0.57 0zm-3.28 2.85c0.08,0 0.15,-0.01 0.22,-0.02 0.54,0.68 1.11,1.01 1.34,1.13 0.23,-0.11 0.8,-0.45 1.34,-1.11l0.7 0c-0.84,1.24 -1.86,1.66 -1.93,1.69l-0.11 0.04 -0.11 -0.04c-0.07,-0.03 -1.15,-0.48 -1.99,-1.79 0.16,0.06 0.34,0.1 0.53,0.1z"/>
   </g>
  </g>
  <polygon class="fil1" points="-0,7.55 -0,0 16.26,0 16.26,7.55 "/>
  <g id="_2431573120192">
   <g id="surface1">
    <path class="fil0" d="M3.48 0.38c-0.61,0 -1.01,0.22 -1.4,0.43 -0.4,0.22 -0.78,0.43 -1.45,0.43l-0.28 0 0 0.28c0,0.85 0.11,1.59 0.28,2.22l0 -0.37c0,-0.33 0.14,-0.63 0.35,-0.86 -0.03,-0.23 -0.05,-0.46 -0.06,-0.71 0.65,-0.05 1.07,-0.28 1.44,-0.49 0.35,-0.19 0.66,-0.36 1.12,-0.36 0.47,0 0.77,0.16 1.12,0.36 0.37,0.2 0.8,0.44 1.44,0.49 -0.02,0.78 -0.15,1.44 -0.33,2l0.6 0c0.19,-0.64 0.3,-1.4 0.3,-2.28l0 -0.28 -0.28 0c-0.67,0 -1.05,-0.21 -1.45,-0.43 -0.39,-0.21 -0.79,-0.43 -1.4,-0.43zm-1.57 2.28c-0.39,0 -0.71,0.32 -0.71,0.71 0,0.39 0.32,0.71 0.71,0.71 0.08,0 0.14,0.06 0.14,0.14 0,0.1 -0.02,0.14 -0.14,0.14 -0.11,0 -0.12,-0.02 -0.12,-0.03 -0,-0 -0.02,-0.01 -0.02,-0.08l-0.57 0c0,0.16 0.04,0.34 0.18,0.48 0.13,0.14 0.33,0.2 0.53,0.2 0.4,0 0.71,-0.34 0.71,-0.71 0,-0.39 -0.32,-0.71 -0.71,-0.71 -0.08,0 -0.14,-0.06 -0.14,-0.14 0,-0.08 0.06,-0.14 0.14,-0.14 0.08,0 0.1,0.02 0.12,0.04 0.02,0.02 0.03,0.06 0.03,0.08l0.57 0c0,-0.16 -0.06,-0.33 -0.18,-0.46 -0.12,-0.13 -0.32,-0.22 -0.53,-0.22l0 0zm1.71 0c-0.39,0 -0.71,0.32 -0.71,0.71 0,0.39 0.32,0.71 0.71,0.71 0.08,0 0.14,0.06 0.14,0.14 0,0.1 -0.02,0.14 -0.14,0.14 -0.11,0 -0.12,-0.02 -0.12,-0.03 -0,-0 -0.02,-0.01 -0.02,-0.08l-0.57 0c0,0.16 0.04,0.34 0.18,0.48 0.13,0.14 0.33,0.2 0.53,0.2 0.4,0 0.71,-0.34 0.71,-0.71 0,-0.39 -0.32,-0.71 -0.71,-0.71 -0.08,0 -0.14,-0.06 -0.14,-0.14 0,-0.08 0.06,-0.14 0.14,-0.14 0.08,0 0.1,0.02 0.12,0.04 0.02,0.02 0.03,0.06 0.03,0.08l0.57 0c0,-0.16 -0.06,-0.33 -0.18,-0.46 -0.12,-0.13 -0.32,-0.22 -0.53,-0.22l0 0zm1 0l0 2.28 1.14 0 0 -0.57 -0.57 0 0 -1.71 -0.57 0zm-3.24 2.75c0.85,1.31 1.92,1.76 1.99,1.79l0.11 0.04 0.11 -0.04c0.07,-0.03 1.09,-0.46 1.93,-1.69l-0.7 0c-0.54,0.67 -1.1,1 -1.34,1.11 -0.23,-0.12 -0.8,-0.45 -1.34,-1.13 -0.07,0.01 -0.15,0.02 -0.22,0.02 -0.2,0 -0.37,-0.03 -0.53,-0.1z"/>
   </g>
  </g>
  <polygon class="fil2" points="8.27,3.04 8.3,3.19 8.33,3.05 8.56,2.24 8.69,2.24 8.92,3.05 8.95,3.2 8.98,3.04 9.16,2.24 9.31,2.24 9.03,3.41 8.89,3.41 8.65,2.55 8.63,2.46 8.61,2.55 8.36,3.41 8.22,3.41 7.93,2.24 8.09,2.24 "/>
  <polygon id="1" class="fil2" points="10.31,2.87 9.8,2.87 9.8,3.28 10.39,3.28 10.39,3.41 9.64,3.41 9.64,2.24 10.38,2.24 10.38,2.36 9.8,2.36 9.8,2.74 10.31,2.74 "/>
  <path id="2" class="fil2" d="M10.74 3.41l0 -1.17 0.38 0c0.13,0 0.22,0.03 0.29,0.08 0.06,0.05 0.1,0.13 0.1,0.23 0,0.05 -0.02,0.1 -0.05,0.15 -0.03,0.04 -0.07,0.08 -0.13,0.1 0.06,0.02 0.11,0.05 0.15,0.1 0.04,0.05 0.06,0.11 0.06,0.18 0,0.11 -0.03,0.19 -0.1,0.25 -0.07,0.06 -0.16,0.09 -0.29,0.09l-0.41 0zm0.15 -0.55l0 0.42 0.26 0c0.07,0 0.13,-0.02 0.17,-0.06 0.04,-0.04 0.06,-0.09 0.06,-0.15 0,-0.14 -0.08,-0.21 -0.23,-0.21l-0.26 0zm0 -0.13l0.23 0c0.07,0 0.12,-0.02 0.16,-0.05 0.04,-0.03 0.06,-0.08 0.06,-0.14 0,-0.06 -0.02,-0.11 -0.06,-0.14 -0.04,-0.03 -0.09,-0.04 -0.17,-0.04l-0.23 0 0 0.37z"/>
  <path id="3" class="fil2" d="M12.28 2.89c-0.13,-0.04 -0.23,-0.09 -0.29,-0.14 -0.06,-0.06 -0.09,-0.12 -0.09,-0.21 0,-0.09 0.04,-0.17 0.11,-0.23 0.07,-0.06 0.17,-0.09 0.29,-0.09 0.08,0 0.15,0.02 0.22,0.05 0.06,0.03 0.11,0.07 0.15,0.13 0.03,0.05 0.05,0.11 0.05,0.18l-0.16 0c0,-0.07 -0.02,-0.13 -0.07,-0.17 -0.05,-0.04 -0.11,-0.06 -0.19,-0.06 -0.08,0 -0.14,0.02 -0.18,0.05 -0.04,0.03 -0.06,0.08 -0.06,0.14 0,0.05 0.02,0.09 0.06,0.12 0.04,0.03 0.11,0.06 0.21,0.09 0.1,0.03 0.17,0.06 0.23,0.09 0.06,0.03 0.1,0.07 0.12,0.12 0.03,0.04 0.04,0.1 0.04,0.16 0,0.1 -0.04,0.17 -0.11,0.23 -0.07,0.06 -0.17,0.09 -0.3,0.09 -0.08,0 -0.16,-0.02 -0.23,-0.05 -0.07,-0.03 -0.12,-0.07 -0.16,-0.13 -0.04,-0.05 -0.06,-0.11 -0.06,-0.18l0.16 0c0,0.07 0.03,0.13 0.08,0.17 0.05,0.04 0.12,0.06 0.21,0.06 0.08,0 0.14,-0.02 0.19,-0.05 0.04,-0.03 0.07,-0.08 0.07,-0.14 0,-0.06 -0.02,-0.1 -0.06,-0.13 -0.04,-0.03 -0.11,-0.06 -0.22,-0.09z"/>
  <polygon id="4" class="fil2" points="13.24,3.41 13.08,3.41 13.08,2.24 13.24,2.24 "/>
  <polygon id="5" class="fil2" points="14.47,2.36 14.09,2.36 14.09,3.41 13.94,3.41 13.94,2.36 13.56,2.36 13.56,2.24 14.47,2.24 "/>
  <polygon id="6" class="fil2" points="15.46,2.87 14.96,2.87 14.96,3.28 15.55,3.28 15.55,3.41 14.8,3.41 14.8,2.24 15.54,2.24 15.54,2.36 14.96,2.36 14.96,2.74 15.46,2.74 "/>
  <path id="7" class="fil2" d="M8.89 5.24c-0.04,0.06 -0.1,0.1 -0.17,0.13 -0.07,0.03 -0.15,0.04 -0.25,0.04 -0.1,0 -0.18,-0.02 -0.25,-0.07 -0.07,-0.04 -0.13,-0.11 -0.17,-0.19 -0.04,-0.08 -0.06,-0.18 -0.06,-0.29l0 -0.1c0,-0.18 0.04,-0.31 0.12,-0.41 0.08,-0.1 0.2,-0.15 0.35,-0.15 0.12,0 0.22,0.03 0.3,0.09 0.07,0.06 0.12,0.15 0.14,0.27l-0.15 0c-0.03,-0.16 -0.12,-0.23 -0.28,-0.23 -0.1,0 -0.18,0.04 -0.24,0.11 -0.05,0.07 -0.08,0.18 -0.08,0.32l0 0.1c0,0.13 0.03,0.24 0.09,0.31 0.06,0.08 0.14,0.12 0.24,0.12 0.06,0 0.11,-0.01 0.15,-0.02 0.04,-0.01 0.08,-0.03 0.11,-0.06l0 -0.26 -0.27 0 0 -0.13 0.43 0 0 0.43z"/>
  <path id="8" class="fil2" d="M10.13 4.22l0 0.8c-0,0.11 -0.04,0.2 -0.1,0.27 -0.07,0.07 -0.16,0.11 -0.28,0.12l-0.04 0c-0.13,0 -0.23,-0.03 -0.31,-0.1 -0.08,-0.07 -0.11,-0.16 -0.12,-0.29l0 -0.8 0.15 0 0 0.79c0,0.09 0.02,0.15 0.07,0.2 0.05,0.05 0.11,0.07 0.2,0.07 0.09,0 0.15,-0.02 0.2,-0.07 0.05,-0.05 0.07,-0.11 0.07,-0.2l0 -0.8 0.16 0z"/>
  <path id="9" class="fil2" d="M11.17 5.08l-0.49 0 -0.11 0.31 -0.16 0 0.45 -1.17 0.14 0 0.45 1.17 -0.16 0 -0.11 -0.31zm-0.45 -0.13l0.4 0 -0.2 -0.55 -0.2 0.55z"/>
  <path id="10" class="fil2" d="M12.18 4.92l-0.28 0 0 0.47 -0.16 0 0 -1.17 0.39 0c0.13,0 0.23,0.03 0.31,0.09 0.07,0.06 0.11,0.15 0.11,0.26 0,0.07 -0.02,0.14 -0.06,0.19 -0.04,0.05 -0.09,0.09 -0.16,0.12l0.28 0.5 0 0.01 -0.17 0 -0.25 -0.47zm-0.28 -0.13l0.24 0c0.08,0 0.14,-0.02 0.18,-0.06 0.05,-0.04 0.07,-0.09 0.07,-0.16 0,-0.07 -0.02,-0.13 -0.06,-0.17 -0.04,-0.04 -0.11,-0.06 -0.19,-0.06l-0.24 0 0 0.45z"/>
  <path id="11" class="fil2" d="M12.93 5.39l0 -1.17 0.33 0c0.1,0 0.19,0.02 0.27,0.07 0.08,0.05 0.14,0.11 0.18,0.19 0.04,0.08 0.06,0.18 0.06,0.29l0 0.08c0,0.11 -0.02,0.21 -0.06,0.29 -0.04,0.08 -0.1,0.15 -0.18,0.19 -0.08,0.04 -0.17,0.07 -0.28,0.07l-0.32 0zm0.15 -1.05l0 0.92 0.16 0c0.12,0 0.21,-0.04 0.28,-0.11 0.07,-0.07 0.1,-0.18 0.1,-0.32l0 -0.07c0,-0.13 -0.03,-0.24 -0.09,-0.31 -0.06,-0.07 -0.15,-0.11 -0.27,-0.11l-0.18 0z"/>
 </g>
</svg>
