<?xml version="1.0" encoding="UTF-8"?>
<!DOCTYPE svg PUBLIC "-//W3C//DTD SVG 1.1//EN" "http://www.w3.org/Graphics/SVG/1.1/DTD/svg11.dtd">
<!-- Creator: CorelDRAW 2018 (64-Bit) -->
<svg xmlns="http://www.w3.org/2000/svg" xml:space="preserve" width="10.582mm" height="8.8182mm" version="1.1" style="shape-rendering:geometricPrecision; text-rendering:geometricPrecision; image-rendering:optimizeQuality; fill-rule:evenodd; clip-rule:evenodd"
viewBox="0 0 6.17 5.14"
 xmlns:xlink="http://www.w3.org/1999/xlink">
 <defs>
  <style type="text/css">
   <![CDATA[
    .fil0 {fill:none}
    .fil1 {fill:#FFE040}
   ]]>
  </style>
 </defs>
 <g id="Слой_x0020_1">
  <metadata id="CorelCorpID_0Corel-Layer"/>
  <rect class="fil0" width="6.17" height="5.14"/>
  <g id="vip2.svg">
   <g id="surface1">
    <path class="fil1" d="M4.45 1.36l-2.74 0c-0.23,0 -0.41,0.18 -0.41,0.41l0 1.64c0,0.23 0.18,0.41 0.41,0.41l2.74 0c0.23,0 0.41,-0.18 0.41,-0.41l0 -1.64c0,-0.23 -0.18,-0.41 -0.41,-0.41zm-2.11 1.92l-0.31 0 -0.3 -1.37 0.3 0 0.1 0.59c0.03,0.15 0.05,0.31 0.07,0.48 0.01,-0.16 0.04,-0.33 0.07,-0.48l0.1 -0.59 0.3 0 -0.31 1.37zm0.88 0l-0.27 0 0 -1.37 0.27 0 0 1.37zm1.09 -0.64c-0.08,0.1 -0.23,0.14 -0.34,0.14 -0.01,0 -0.04,0 -0.05,0l0 0.51 -0.27 0 0 -1.37c0.08,-0.01 0.18,-0.03 0.29,-0.03 0.16,0 0.3,0.03 0.38,0.11 0.08,0.07 0.12,0.19 0.12,0.3 -0.01,0.15 -0.05,0.26 -0.12,0.34zm-0.16 -0.31c0,0.12 -0.06,0.23 -0.21,0.23 -0.01,0 -0.03,0 -0.04,0l0 -0.44c0.01,0 0.04,-0.01 0.07,-0.01 0.14,0 0.18,0.1 0.18,0.22z"/>
   </g>
  </g>
 </g>
</svg>
