<?xml version="1.0" encoding="UTF-8"?>
<!DOCTYPE svg PUBLIC "-//W3C//DTD SVG 1.1//EN" "http://www.w3.org/Graphics/SVG/1.1/DTD/svg11.dtd">
<!-- Creator: CorelDRAW 2018 (64-Bit) -->
<svg xmlns="http://www.w3.org/2000/svg" xml:space="preserve" width="42.7373mm" height="19.601mm" version="1.1" style="shape-rendering:geometricPrecision; text-rendering:geometricPrecision; image-rendering:optimizeQuality; fill-rule:evenodd; clip-rule:evenodd"
viewBox="0 0 29.82 13.68"
 xmlns:xlink="http://www.w3.org/1999/xlink">
 <defs>
  <style type="text/css">
   <![CDATA[
    .str0 {stroke:#B9B9B9;stroke-width:0.12;stroke-miterlimit:22.9256}
    .fil1 {fill:#B9B9B9}
    .fil0 {fill:#B9B9B9;fill-rule:nonzero}
   ]]>
  </style>
 </defs>
 <g id="Слой_x0020_1">
  <metadata id="CorelCorpID_0Corel-Layer"/>
  <path class="fil0" d="M23.55 12.62c0.17,0.16 0.61,0.08 0.7,-0.2 0.09,-0.44 0.02,-1.29 0.02,-1.78 -0.01,-0.89 0.01,-1.77 0.02,-2.66 0,-0.27 -0.06,-0.81 -0.43,-0.81 -0.37,0 -0.51,0.55 -0.53,0.84 -0.02,0.26 0.02,0.63 0.02,0.91 0,0.07 0.03,0.74 -0.08,0.74 -0.11,-0 -0.47,-0.52 -0.57,-0.64 -0.36,-0.44 -0.73,-0.89 -1.09,-1.33 -0.22,-0.26 -0.66,-0.57 -1.02,-0.44 -0.34,0.13 -0.11,0.49 0.04,0.68 0.17,0.21 0.38,0.4 0.56,0.62 0.16,0.19 0.75,0.84 0.83,1.01 0.11,0.25 -0.12,0.44 -0.27,0.64 -0.41,0.53 -0.79,1.11 -1.19,1.66 -0.11,0.16 -0.44,0.65 -0.08,0.74 0.36,0.09 0.85,-0.3 1.06,-0.57 0.16,-0.2 0.33,-0.47 0.47,-0.69 0.09,-0.14 0.54,-0.81 0.66,-0.87 0.2,-0.1 0.41,0.19 0.51,0.34 0.31,0.45 -0.05,1.42 0.34,1.83z"/>
  <path class="fil0" d="M19.73 8.44c0.26,0.58 0.29,1.22 0.26,1.85 -0.07,1.38 -0.89,2.48 -2.37,2.38 -1.38,-0.09 -2.03,-1.26 -2.05,-2.52 -0.01,-0.83 0.07,-1.67 0.66,-2.31 0.86,-0.93 2.5,-0.85 3.25,0.18 0.1,0.14 0.18,0.27 0.25,0.43zm-4.2 -3.83c0,-0.57 -0.04,-2.69 0.08,-3.1 0.08,-0.28 0.32,-0.41 0.61,-0.36 0.41,0.07 0.36,0.58 0.36,0.89 -0,0.84 -0.07,1.69 -0.08,2.52 -0,0.31 -0.05,1.07 0.31,1.19 0.34,0.11 1.22,0.17 1.66,0.18 0.35,0.01 1.35,-0.12 1.63,-0.33 0.47,-0.37 0.95,-1.19 1.33,-1.69 0.44,-0.57 1.16,-1.52 0.18,-1.99 -0.57,-0.27 -0.91,0.18 -1.29,0.53 -0.18,0.16 -0.29,0.2 -0.48,0 -0.37,-0.38 0.18,-1.02 0.52,-1.21 1.15,-0.64 3.04,0.2 2.49,1.81 -0.09,0.28 -0.23,0.52 -0.4,0.76 -0.16,0.23 -1.03,1.59 -1.03,1.73 0.01,0.4 1.36,0.25 1.67,0.22 1.39,-0.16 3.81,-0.56 5.08,0.02 1.15,0.53 1.38,1.68 1.53,2.81 0.03,0.19 0.05,0.39 0.07,0.58 0.06,0.61 0.05,1.03 -0.06,1.63 -0.23,1.32 -1.32,2.12 -2.65,1.83 -1.22,-0.27 -1.71,-1.41 -1.71,-2.56 -0,-0.96 0.14,-1.91 0.99,-2.51 0.47,-0.33 1.21,-0.47 1.76,-0.3 0.17,0.06 0.74,0.3 0.56,-0.13 -0.24,-0.56 -1.21,-0.73 -1.74,-0.78 -1.14,-0.1 -2.47,0.11 -3.62,0.16 -2.1,0.1 -2.62,0.2 -4.72,0.21 -0.34,0 -2.75,-0.05 -2.96,-0.36 -0.14,-0.21 -0.12,-0.6 -0.12,-0.85l0 -0.03c0,-0.28 0.02,-0.56 0.02,-0.84l0 -0.04zm0.96 5.17l0 0.31c0,0.76 0.22,1.73 1.13,1.84 0.98,0.12 1.37,-0.66 1.43,-1.5 0.03,-0.41 0.02,-1.04 -0.08,-1.44 -0.18,-0.68 -0.67,-1.11 -1.41,-1 -0.86,0.14 -1.06,1.06 -1.07,1.79zm10.91 -1.8c-1.1,0.16 -1.17,1.51 -1.1,2.38 0.06,0.89 0.51,1.75 1.55,1.55 1.03,-0.2 1.06,-1.55 1,-2.38 -0.06,-0.88 -0.44,-1.66 -1.45,-1.55z"/>
  <path class="fil1 str0" d="M6.41 0.78c2.08,-0.17 4.18,0.69 5.46,2.26 0.22,0.27 0.45,0.57 0.62,0.91 0.37,0.73 0.63,1.4 0.71,2.33 0.12,1.33 -0.18,2.61 -0.85,3.7 -0.55,0.9 -1.44,1.76 -2.39,2.23 -0.69,0.34 -1.56,0.67 -2.37,0.72 -2,0.11 -3.62,-0.53 -4.73,-1.45 -0.55,-0.46 -1.02,-1.08 -1.36,-1.72 -0.29,-0.58 -0.81,-1.45 -0.4,-2.09 0.44,-0.69 1.88,-1.97 2.6,-2.41 0.73,-0.44 1.45,-0.68 2.29,-0.85 1.8,-0.31 3.44,0.36 4.74,1.59 0.38,0.36 0.94,0.94 0.62,1.5 -0.39,0.68 -1.63,1.34 -2.36,1.6 -1.58,0.56 -3.33,0.4 -4.56,-0.83 -0.81,-0.85 -0.45,-1.57 0.48,-2.08 0.88,-0.49 2.68,-0.86 3.38,0.1 0.77,1.07 -0.46,2.6 -1.61,1.64 -0.61,-0.51 0.37,-0.51 0.04,-1.12 -0.21,-0.39 -0.74,-0.5 -0.9,0.05 -0.18,0.61 0.05,1.26 0.54,1.64 0.63,0.49 1.53,0.54 2.21,0.12 0.83,-0.54 1.09,-1.82 0.5,-2.64 -0.7,-0.98 -2.15,-1.28 -3.26,-0.96 -0.94,0.27 -3.43,1.66 -2.78,2.87 0.46,0.86 2.11,1.75 3.03,2.01 2.07,0.6 4.31,-0.03 5.67,-1.74 0.57,-0.72 0.88,-1.18 0.16,-1.95 -0.85,-0.91 -1.69,-1.63 -2.85,-2.12 -0.71,-0.3 -1.57,-0.49 -2.45,-0.44 -0.86,0.04 -1.65,0.26 -2.33,0.57 -1.08,0.5 -1.58,0.9 -2.41,1.71 -0.22,0.21 -1.01,1.17 -1.07,0.32 -0.04,-0.55 0.4,-1.77 0.66,-2.28 0.13,-0.24 0.28,-0.46 0.44,-0.69l0.04 -0.06c0.23,-0.29 0.29,-0.36 0.54,-0.62 0.07,-0.07 0.11,-0.11 0.19,-0.19 0.04,-0.04 0.07,-0.06 0.11,-0.09 0.45,-0.36 0.67,-0.54 1.27,-0.84 0.6,-0.3 1.61,-0.65 2.39,-0.71zm7.48 6.32c0.04,-1.04 -0.14,-2 -0.51,-2.87 -0.24,-0.56 -0.67,-1.27 -1.08,-1.72 -0.23,-0.25 -0.24,-0.28 -0.52,-0.54 -0.32,-0.3 -0.34,-0.32 -0.7,-0.59 -1.09,-0.77 -2.37,-1.27 -3.82,-1.33 -1.63,-0.07 -3.33,0.51 -4.53,1.47l-0.46 0.39 -0.82 0.9c-0.24,0.31 -0.46,0.66 -0.66,1.04 -1.17,2.61 -0.93,4.81 0.74,7.12 0.14,0.17 0.27,0.33 0.42,0.48 0.1,0.1 0.45,0.46 0.56,0.54l0.35 0.28c1.06,0.8 2.4,1.25 3.83,1.32 1.52,0.07 2.87,-0.35 4.08,-1.1 0.42,-0.26 0.54,-0.38 0.86,-0.64 0.22,-0.17 0.74,-0.74 0.93,-1 0.81,-1.08 1.27,-2.34 1.32,-3.77z"/>
 </g>
</svg>
