<?xml version="1.0" encoding="UTF-8"?>
<!DOCTYPE svg PUBLIC "-//W3C//DTD SVG 1.1//EN" "http://www.w3.org/Graphics/SVG/1.1/DTD/svg11.dtd">
<!-- Creator: CorelDRAW 2018 (64-Bit) -->
<svg xmlns="http://www.w3.org/2000/svg" xml:space="preserve" width="20.0035mm" height="19.601mm" version="1.1" style="shape-rendering:geometricPrecision; text-rendering:geometricPrecision; image-rendering:optimizeQuality; fill-rule:evenodd; clip-rule:evenodd"
viewBox="0 0 6.53 6.4"
 xmlns:xlink="http://www.w3.org/1999/xlink">
 <defs>
  <style type="text/css">
   <![CDATA[
    .str0 {stroke:#0788F8;stroke-width:0.05;stroke-miterlimit:22.9256}
    .fil0 {fill:#0788F8}
   ]]>
  </style>
 </defs>
 <g id="Слой_x0020_1">
  <metadata id="CorelCorpID_0Corel-Layer"/>
  <path class="fil0 str0" d="M3 0.37c0.97,-0.08 1.96,0.32 2.56,1.06 0.1,0.13 0.21,0.27 0.29,0.43 0.18,0.34 0.29,0.65 0.33,1.09 0.06,0.62 -0.08,1.22 -0.4,1.73 -0.26,0.42 -0.67,0.82 -1.12,1.04 -0.32,0.16 -0.73,0.31 -1.11,0.34 -0.94,0.05 -1.69,-0.25 -2.21,-0.68 -0.26,-0.22 -0.48,-0.51 -0.64,-0.8 -0.14,-0.27 -0.38,-0.68 -0.19,-0.98 0.21,-0.32 0.88,-0.92 1.22,-1.13 0.34,-0.21 0.68,-0.32 1.07,-0.4 0.84,-0.14 1.61,0.17 2.22,0.75 0.18,0.17 0.44,0.44 0.29,0.7 -0.18,0.32 -0.76,0.63 -1.11,0.75 -0.74,0.26 -1.56,0.19 -2.13,-0.39 -0.38,-0.4 -0.21,-0.73 0.22,-0.97 0.41,-0.23 1.26,-0.4 1.58,0.05 0.36,0.5 -0.21,1.22 -0.75,0.77 -0.29,-0.24 0.17,-0.24 0.02,-0.53 -0.1,-0.18 -0.35,-0.23 -0.42,0.02 -0.08,0.28 0.02,0.59 0.25,0.77 0.3,0.23 0.72,0.25 1.03,0.05 0.39,-0.25 0.51,-0.85 0.23,-1.23 -0.33,-0.46 -1.01,-0.6 -1.53,-0.45 -0.44,0.12 -1.61,0.78 -1.3,1.34 0.22,0.4 0.99,0.82 1.42,0.94 0.97,0.28 2.02,-0.02 2.65,-0.81 0.27,-0.34 0.41,-0.55 0.08,-0.91 -0.4,-0.42 -0.79,-0.76 -1.33,-0.99 -0.33,-0.14 -0.74,-0.23 -1.15,-0.21 -0.4,0.02 -0.77,0.12 -1.09,0.27 -0.5,0.23 -0.74,0.42 -1.13,0.8 -0.1,0.1 -0.47,0.55 -0.5,0.15 -0.02,-0.26 0.19,-0.83 0.31,-1.06 0.06,-0.11 0.13,-0.22 0.2,-0.32l0.02 -0.03c0.11,-0.14 0.14,-0.17 0.25,-0.29 0.03,-0.03 0.05,-0.05 0.09,-0.09 0.02,-0.02 0.03,-0.03 0.05,-0.04 0.21,-0.17 0.31,-0.25 0.59,-0.39 0.28,-0.14 0.75,-0.3 1.12,-0.33zm3.5 2.96c0.02,-0.49 -0.07,-0.94 -0.24,-1.34 -0.11,-0.26 -0.31,-0.6 -0.5,-0.8 -0.11,-0.12 -0.11,-0.13 -0.24,-0.25 -0.15,-0.14 -0.16,-0.15 -0.33,-0.27 -0.51,-0.36 -1.11,-0.59 -1.79,-0.62 -0.76,-0.03 -1.56,0.24 -2.12,0.69l-0.22 0.18 -0.39 0.42c-0.11,0.15 -0.22,0.31 -0.31,0.49 -0.55,1.22 -0.44,2.25 0.35,3.33 0.06,0.08 0.13,0.15 0.2,0.23 0.05,0.05 0.21,0.21 0.26,0.25l0.16 0.13c0.49,0.37 1.13,0.59 1.79,0.62 0.71,0.03 1.34,-0.17 1.91,-0.51 0.2,-0.12 0.25,-0.18 0.4,-0.3 0.1,-0.08 0.35,-0.34 0.44,-0.47 0.38,-0.51 0.59,-1.09 0.62,-1.77z"/>
 </g>
</svg>
