<svg version="1.1" xmlns="http://www.w3.org/2000/svg" xmlns:xlink="http://www.w3.org/1999/xlink" viewBox="0 0 252 252"><g fill="none" fill-rule="nonzero" stroke="none" stroke-width="1" stroke-linecap="butt" stroke-linejoin="miter" stroke-miterlimit="10" stroke-dasharray="" stroke-dashoffset="0" font-family="none" font-weight="none" font-size="none" text-anchor="none" style="mix-blend-mode: normal"><path d="M0,252v-252h252v252z" fill="none"></path><path d="M0,126c0,-69.58788 56.41212,-126 126,-126c69.58788,0 126,56.41212 126,126c0,69.58788 -56.41212,126 -126,126c-69.58788,0 -126,-56.41212 -126,-126zM126,241.92c64.02085,0 115.92,-51.89915 115.92,-115.92c0,-64.02085 -51.89915,-115.92 -115.92,-115.92c-64.02085,0 -115.92,51.89915 -115.92,115.92c0,64.02085 51.89915,115.92 115.92,115.92z" fill="#b9b9b9"></path><g fill="#b9b9b9"><path d="M126,59.85c-36.45747,0 -66.15,29.69253 -66.15,66.15c0,36.45747 29.69253,66.15 66.15,66.15h33.075v-13.23h-33.075c-29.30886,0 -52.92,-23.61114 -52.92,-52.92c0,-29.30886 23.61114,-52.92 52.92,-52.92c29.30886,0 52.92,23.61114 52.92,52.92v9.9225c0,5.56197 -4.36053,9.9225 -9.9225,9.9225c-5.56197,0 -9.9225,-4.36053 -9.9225,-9.9225v-9.9225c0,-18.18847 -14.88653,-33.075 -33.075,-33.075c-18.18847,0 -33.075,14.88653 -33.075,33.075c0,18.18847 14.88653,33.075 33.075,33.075c9.35067,0 17.78019,-3.97644 23.81141,-10.27134c4.17463,6.17574 11.23292,10.27134 19.18609,10.27134c12.70866,0 23.1525,-10.44384 23.1525,-23.1525v-9.9225c0,-36.45747 -29.69253,-66.15 -66.15,-66.15zM126,106.155c11.03844,0 19.845,8.80656 19.845,19.845c0,11.03844 -8.80656,19.845 -19.845,19.845c-11.03844,0 -19.845,-8.80656 -19.845,-19.845c0,-11.03844 8.80656,-19.845 19.845,-19.845z"></path></g><path d="M126,252c-69.58788,0 -126,-56.41212 -126,-126v0c0,-69.58788 56.41212,-126 126,-126v0c69.58788,0 126,56.41212 126,126v0c0,69.58788 -56.41212,126 -126,126z" fill="none"></path><path d="M126,241.92c-64.02085,0 -115.92,-51.89915 -115.92,-115.92v0c0,-64.02085 51.89915,-115.92 115.92,-115.92h0c64.02085,0 115.92,51.89915 115.92,115.92v0c0,64.02085 -51.89915,115.92 -115.92,115.92z" fill="none"></path><path d="M126,252c-69.58788,0 -126,-56.41212 -126,-126v0c0,-69.58788 56.41212,-126 126,-126v0c69.58788,0 126,56.41212 126,126v0c0,69.58788 -56.41212,126 -126,126z" fill="none"></path><path d="M126,241.92c-64.02085,0 -115.92,-51.89915 -115.92,-115.92v0c0,-64.02085 51.89915,-115.92 115.92,-115.92h0c64.02085,0 115.92,51.89915 115.92,115.92v0c0,64.02085 -51.89915,115.92 -115.92,115.92z" fill="none"></path></g></svg>