<svg version="1.1" xmlns="http://www.w3.org/2000/svg" xmlns:xlink="http://www.w3.org/1999/xlink" viewBox="0 0 252 252"><g transform="translate(0.504,0.504) scale(0.996,0.996)"><g fill="none" fill-rule="nonzero" stroke="none" stroke-width="1" stroke-linecap="butt" stroke-linejoin="none" stroke-miterlimit="10" stroke-dasharray="" stroke-dashoffset="0" font-family="none" font-weight="none" font-size="none" text-anchor="none" style="mix-blend-mode: normal"><g fill="#b9b9b9" stroke="#ffffff" stroke-linejoin="round"><path d="M158.96672,67.60195c24.381,1.43892 44.14154,26.21304 45.09914,56.7c0.95508,30.40884 -17.12065,56.19836 -41.27485,59.12156c-0.29232,0.14364 -0.60515,0.23109 -0.93023,0.24117l-21.28711,0.59555l-0.2707,0.00492c-0.35532,0.00756 -0.71273,0.01476 -1.06805,0.01476c-5.21946,0.00052 -10.22319,-1.08486 -14.88867,-3.07125c-5.83732,3.21231 -12.14324,5.02031 -18.54562,5.02031c-1.8018,0 -3.60722,-0.14092 -5.41406,-0.4282c-0.30744,0.05292 -0.6228,0.04859 -0.93024,-0.02953l-18.62437,-4.77914c-0.04032,-0.0126 -0.08273,-0.02425 -0.12305,-0.03938l-0.25594,-0.05906c-22.36752,-5.733 -34.22684,-32.70767 -26.9768,-61.40039c2.90304,-11.48616 8.44078,-21.55529 16.01086,-29.11781c0.9828,-0.98532 2.58064,-0.98532 3.56344,0c0.9828,0.98532 0.9804,2.58064 -0.00492,3.56344c-1.8584,1.85705 -3.57164,3.89425 -5.1532,6.06867l11.80758,3.38625c4.22398,-5.95566 9.44029,-10.89675 15.37101,-14.42109c3.52964,-2.09688 7.15719,-3.60025 10.81828,-4.51336c0.14551,-0.18467 0.28536,-0.37388 0.43313,-0.55617l-0.71367,-0.18211c-0.07308,-0.0126 -0.14348,-0.02906 -0.21656,-0.04922l-0.31992,-0.08859c-6.3252,-1.62036 -13.01285,-1.05946 -19.33805,1.6193c-1.2852,0.5418 -2.76066,-0.05859 -3.3075,-1.33875c-0.5418,-1.28016 0.05859,-2.75826 1.33875,-3.30258c7.35084,-3.1122 15.15067,-3.75299 22.55695,-1.86047c0.01512,0.00504 0.15356,0.04142 0.21656,0.05906c0.04536,0.01008 0.08993,0.02185 0.13781,0.03445l3.52406,0.9007c7.4697,-7.27839 16.52092,-11.30174 26.33695,-11.57625l0.00492,0.03445c0.13104,-0.0252 0.26751,-0.03926 0.40359,-0.0443l17.59078,-0.50695c0.37296,-0.0252 0.74911,-0.0515 1.12711,-0.05906c0.37044,-0.0126 0.7562,-0.00504 1.1468,0l0.33469,0.00492l1.08281,-0.03445c0.25452,0.0126 0.5014,0.02559 0.73828,0.08859zM157.18992,72.58781l-0.46266,-0.00492c-0.30744,-0.00504 -0.61547,-0.015 -0.92039,-0.00492c-0.31752,0.01008 -0.61559,0.03398 -0.91547,0.05414l-0.38391,0.02461l-6.71836,0.18703c-6.67201,1.78263 -12.85468,5.55512 -18.17156,11.19726c-10.0548,10.66968 -15.52363,26.38054 -14.99695,43.10578c0.80064,25.49854 15.41082,46.54618 34.31039,51.82734l11.97985,-0.32976c0.19908,-0.08064 0.40584,-0.13734 0.62508,-0.1575c21.90636,-2.20752 38.37937,-25.9395 37.49485,-54.02742c-0.88452,-28.09548 -18.82448,-50.87419 -40.84172,-51.85195c-0.12348,-0.00504 -0.24086,-0.01669 -0.3593,-0.03938zM137.28094,73.13906c-0.07308,0.00756 -0.14348,0.01224 -0.21656,0.01476l-0.38391,0.00492c-9.08208,0.25452 -17.47596,4.19931 -24.26484,11.40399c-4.74917,5.04089 -8.42505,11.35374 -10.88226,18.46195h14.06672c2.66946,-7.89812 6.78673,-14.99536 12.17672,-20.71617c3.73782,-3.96596 7.89457,-7.04715 12.33422,-9.2482zM188.96555,125.06976c0.29484,9.4248 -1.57599,18.37454 -5.41898,25.88414c-0.315,0.61992 -1.07813,0.86877 -1.69805,0.55125c-0.61992,-0.31752 -0.86133,-1.07813 -0.54633,-1.69805c3.64896,-7.13412 5.4256,-15.6646 5.14336,-24.66352c-0.6804,-21.63924 -13.3095,-39.01838 -28.18758,-38.48414c-5.4558,0.15372 -10.63747,2.67746 -14.99203,7.29914c-7.119,7.55244 -11.12556,19.77357 -10.71984,32.69109c0.6804,21.63924 13.35486,38.80406 28.18758,38.48906c3.73968,-0.10332 7.33403,-1.3126 10.67555,-3.58312c0.5796,-0.3906 1.36159,-0.24239 1.75219,0.33469c0.3906,0.57708 0.23987,1.35666 -0.33469,1.74726c-3.74976,2.55024 -7.79558,3.90273 -12.02414,4.02117c-0.189,0.00252 -0.38914,0.00492 -0.5857,0.00492c-15.99192,0 -29.47018,-18.19716 -30.18586,-40.94016c-0.42588,-13.57272 3.83643,-26.46378 11.40399,-34.4925c4.8258,-5.12064 10.61786,-7.9202 16.75406,-8.09156c0.19908,-0.00504 0.40151,-0.00492 0.59555,-0.00492c15.9894,0 29.46526,18.19223 30.18094,40.93523zM96.36047,91.13836c-5.78101,3.43524 -10.84607,8.30796 -14.92312,14.18484c-0.0579,0.14893 -0.14287,0.27704 -0.24609,0.38883c-3.80248,5.57942 -6.73685,12.03158 -8.50992,19.04765c-5.60469,22.17314 1.74516,43.87357 16.64578,53.20547l10.62633,2.7218c0.2016,-0.01764 0.40367,-0.00827 0.61031,0.02953c6.18328,1.11471 12.42338,0.17306 18.27,-2.37235c-2.92811,-1.81376 -5.67402,-4.01338 -8.20969,-6.54609c-1.08302,0.1814 -2.16307,0.30516 -3.2386,0.30516c-1.63044,0 -3.2482,-0.20459 -4.83328,-0.61031c-4.15044,-1.06344 -7.91107,-3.53288 -10.88719,-7.14656c-0.44352,-0.53676 -0.3645,-1.33088 0.17226,-1.77187c0.53928,-0.44604 1.32835,-0.36942 1.77187,0.16734c2.66868,3.24072 5.88893,5.36736 9.56813,6.30984c1.74592,0.4489 3.54141,0.58684 5.355,0.46266c-9.11642,-10.29317 -15.02588,-25.15017 -15.55805,-42.12633c-0.11903,-3.78022 0.05257,-7.49954 0.46758,-11.12836c-2.1855,3.76827 -3.92879,7.99761 -5.07445,12.52125c-0.92232,3.64896 -1.43746,7.33954 -1.5307,10.97086c-0.09828,3.79512 0.26405,7.45987 1.07297,10.89211c0.15876,0.67788 -0.2622,1.3597 -0.94008,1.51594c-0.6804,0.16632 -1.35718,-0.25727 -1.51594,-0.93515c-0.8568,-3.6414 -1.24027,-7.52504 -1.13695,-11.53688c0.09828,-3.8178 0.64177,-7.69423 1.60945,-11.52211c1.69143,-6.69371 4.65045,-12.78368 8.42133,-17.77289c1.65313,-8.34529 4.72938,-16.03022 9.06117,-22.53727c-2.37774,0.83148 -4.73551,1.90859 -7.04812,3.28289zM58.60476,119.88703l11.86664,3.40101c1.71856,-6.43429 4.3581,-12.41814 7.75195,-17.69906l-11.84203,-3.3961c-3.41738,5.2201 -6.04477,11.19781 -7.77656,17.69414zM97.99945,125.70469h14.08641c-0.07342,-6.99868 0.85811,-13.81024 2.71688,-20.16h-14.07656c-1.86628,6.27013 -2.80294,13.08747 -2.72672,20.16zM159.41461,108.59625c1.2222,0 1.88968,0.56668 2.00812,1.69313l-0.03445,0.89086c0.65772,0.11088 1.33229,0.28496 2.02781,0.5168c0.693,0.23436 1.47834,0.52821 2.34774,0.88101l-0.10828,-0.06891c0.40068,0.13104 0.71088,0.29803 0.93516,0.49711c0.22176,0.19908 0.36063,0.52117 0.40851,0.96469v0.19688c0,0.15372 -0.04241,0.35603 -0.12305,0.60047c-0.08064,0.24444 -0.21026,0.47222 -0.37406,0.69398c-0.1638,0.21924 -0.34942,0.41446 -0.5611,0.58078c-0.21168,0.1638 -0.44919,0.24609 -0.70875,0.24609c-0.21168,0 -0.40438,-0.01646 -0.58078,-0.04922c-0.1764,-0.03528 -0.38088,-0.12431 -0.61524,-0.28055v0.02953l-0.38883,-0.19688c-0.68292,-0.33012 -1.4351,-0.59826 -2.25914,-0.79735v9.05133l0.14273,0.06399c1.90512,0.9072 3.37428,1.91335 4.41,3.01711c1.03572,1.10628 1.71498,2.25083 2.04258,3.44531c0.14112,0.50904 0.24228,0.97457 0.30024,1.39289c0.05796,0.42084 0.08859,0.85345 0.08859,1.29445c0,1.01808 -0.17384,1.93233 -0.52664,2.75133c-0.3528,0.819 -0.83719,1.52626 -1.44703,2.13609c-0.61236,0.60732 -1.34568,1.10577 -2.205,1.49133c-0.85932,0.38556 -1.79495,0.64902 -2.80547,0.78258v2.38711c0,0.441 -0.09407,0.81223 -0.28055,1.12219c-0.189,0.30996 -0.57933,0.46758 -1.16649,0.46758h-0.21164c-0.58716,0 -1.05978,-0.15545 -1.41258,-0.45281c-0.3528,-0.29736 -0.52664,-0.72974 -0.52664,-1.3043v-2.21977c-1.27008,-0.13356 -2.36561,-0.39918 -3.28289,-0.79734c-0.91728,-0.39816 -1.85508,-0.89901 -2.82024,-1.49625c-0.25956,-0.19908 -0.43832,-0.38469 -0.53156,-0.56109c-0.09576,-0.17892 -0.19908,-0.41848 -0.315,-0.72844v-0.2018c0,-0.19908 0.06091,-0.4247 0.19195,-0.67922c0.12852,-0.252 0.28842,-0.4966 0.47742,-0.72844c0.18648,-0.23184 0.38879,-0.42923 0.60047,-0.59555c0.21168,-0.16632 0.41147,-0.25101 0.60047,-0.25101c0.25956,0 0.48506,0.07292 0.68414,0.21656c0.19908,0.14364 0.3967,0.29417 0.5857,0.44789h0.03445c0.03939,0 0.12911,0.04747 0.23133,0.10828c0.67431,0.43693 1.28001,0.78172 1.81617,1.0336c0.5418,0.25452 1.11522,0.43545 1.72758,0.54633v-10.30641l-0.63492,-0.33469c-0.77616,-0.39816 -1.51909,-0.81408 -2.22469,-1.25508c-0.7056,-0.441 -1.34029,-0.92767 -1.90477,-1.45687c-0.56448,-0.5292 -1.03926,-1.09588 -1.42734,-1.69313c-0.38808,-0.59724 -0.6513,-1.24586 -0.79242,-1.95398c-0.09324,-0.3528 -0.14982,-0.68678 -0.16242,-0.99422c-0.0126,-0.30996 -0.01477,-0.64142 -0.01476,-0.99422c0,-1.03824 0.18093,-1.94323 0.54633,-2.71688c0.3654,-0.77112 0.86613,-1.42935 1.50117,-1.97367c0.63504,-0.5418 1.3823,-0.97189 2.25422,-1.29445c0.8694,-0.32004 1.82389,-0.53388 2.85961,-0.64476v-0.93024c0,-0.441 0.10332,-0.81715 0.315,-1.12711c0.21168,-0.30996 0.60201,-0.46266 1.16649,-0.46266zM155.55094,116.01844c-0.59976,0.50904 -0.9007,1.19299 -0.9007,2.05735c0,0.13356 0.00709,0.27689 0.01969,0.43313c0.01008,0.15372 0.03579,0.34185 0.08367,0.56109c0.16632,0.77364 0.52601,1.40124 1.07789,1.88508c0.55188,0.48888 1.20542,0.92138 1.9589,1.29938v-7.25977c-0.89208,0.17892 -1.63969,0.51723 -2.23945,1.02375zM56.7,141.87797l11.88141,3.40594c-0.59397,-6.26048 -0.19308,-12.86908 1.31414,-19.53984l-11.87648,-3.40594c-1.53253,6.76191 -1.92953,13.36967 -1.31906,19.53984zM102.93117,150.90469h14.14547c-2.79579,-6.89048 -4.53739,-14.5497 -4.90711,-22.68h-14.08641c0.36985,8.23394 2.08202,15.90235 4.84805,22.68zM161.38828,136.53774c0.82404,-0.30744 1.51038,-0.78727 2.06226,-1.42735c0.55188,-0.64008 0.8318,-1.38746 0.8318,-2.2493c0,-0.24192 -0.02595,-0.46537 -0.07383,-0.66445c-0.04788,-0.19908 -0.09245,-0.40572 -0.13781,-0.63c-0.18648,-0.70812 -0.51806,-1.33103 -0.9893,-1.87031c-0.47124,-0.5418 -1.03541,-1.01442 -1.69313,-1.41258zM81.72774,176.01609c0.11844,0.03024 0.23605,0.07024 0.34945,0.11813l0.00492,-0.02461l0.87117,0.22148c-7.4577,-6.77809 -12.41054,-16.869 -14.04703,-28.33031l-11.89617,-3.41086c2.35214,15.68191 11.35608,28.00017 24.71766,31.42617zM139.11188,179.24484c0.30744,0 0.61295,-0.00468 0.92039,-0.01476l0.4036,-0.01969l1.81125,-0.04922c-10.19482,-4.77257 -18.75642,-13.96638 -24.12703,-25.73649h-14.09625c7.21475,15.59389 20.18306,25.82016 35.08805,25.82016zM180.17508,154.28109c0.56448,0.40572 0.69611,1.19755 0.29039,1.76203c-0.52416,0.72828 -1.06718,1.4288 -1.62914,2.10164c-0.24948,0.29484 -0.60925,0.44789 -0.96961,0.44789c-0.28476,0 -0.57283,-0.09383 -0.80719,-0.29039c-0.53424,-0.44604 -0.60354,-1.24256 -0.1575,-1.7768c0.52416,-0.62748 1.02958,-1.2761 1.51594,-1.95398c0.20286,-0.2835 0.5038,-0.4599 0.82195,-0.51188c0.31815,-0.05197 0.65166,0.01736 0.93516,0.22148zM91.1925,159.24234l0.2018,0.33961c0.1008,0.17136 0.14821,0.26432 0.33469,0.53648c0.39312,0.57456 0.24971,1.35907 -0.32485,1.75219c-0.2142,0.14868 -0.46179,0.21656 -0.70875,0.21656c-0.4032,0 -0.799,-0.18849 -1.04344,-0.54633c-0.24192,-0.35532 -0.30953,-0.46982 -0.43805,-0.68906l-0.18211,-0.315c-0.35784,-0.59724 -0.16159,-1.36974 0.43313,-1.72758c0.14994,-0.09072 0.31028,-0.14431 0.4725,-0.16734c0.48668,-0.0691 0.9867,0.15254 1.25508,0.60047z"></path></g><path d="M0,252v-252h252v252z" fill="none" stroke="none" stroke-linejoin="miter"></path><g fill="#b9b9b9" stroke="none" stroke-linejoin="miter"><path d="M158.22844,67.51336l-1.08281,0.03445l-0.33469,-0.00492c-0.3906,-0.00504 -0.77636,-0.0126 -1.1468,0c-0.378,0.00756 -0.75415,0.03386 -1.12711,0.05906l-17.59078,0.50695c-0.13608,0.00504 -0.27255,0.0191 -0.40359,0.0443l-0.00492,-0.03445c-9.81604,0.27451 -18.86726,4.29786 -26.33695,11.57625l-3.52406,-0.9007c-0.04788,-0.0126 -0.09245,-0.02437 -0.13781,-0.03445c-0.063,-0.01764 -0.20144,-0.05402 -0.21656,-0.05906c-7.40628,-1.89252 -15.20611,-1.25173 -22.55695,1.86047c-1.28016,0.54432 -1.88055,2.02242 -1.33875,3.30258c0.54684,1.28016 2.0223,1.88055 3.3075,1.33875c6.3252,-2.67876 13.01285,-3.23966 19.33805,-1.6193l0.31992,0.08859c0.07308,0.02016 0.14348,0.03662 0.21656,0.04922l0.71367,0.18211c-0.14777,0.18229 -0.28761,0.3715 -0.43313,0.55617c-3.66109,0.91311 -7.28864,2.41648 -10.81828,4.51336c-5.93073,3.52435 -11.14703,8.46543 -15.37101,14.42109l-11.80758,-3.38625c1.58157,-2.17442 3.2948,-4.21162 5.1532,-6.06867c0.98532,-0.9828 0.98772,-2.57812 0.00492,-3.56344c-0.9828,-0.98532 -2.58064,-0.98532 -3.56344,0c-7.57008,7.56252 -13.10782,17.63165 -16.01086,29.11781c-7.25004,28.69272 4.60928,55.66739 26.9768,61.40039l0.25594,0.05906c0.04032,0.01512 0.08273,0.02678 0.12305,0.03938l18.62437,4.77914c0.30744,0.07812 0.6228,0.08245 0.93024,0.02953c1.80684,0.28728 3.61226,0.4282 5.41406,0.4282c6.40238,0 12.7083,-1.80801 18.54563,-5.02031c4.66548,1.98639 9.66921,3.07177 14.88867,3.07125c0.35532,0 0.71273,-0.0072 1.06805,-0.01476l0.2707,-0.00492l21.28711,-0.59555c0.32508,-0.01008 0.63791,-0.09753 0.93023,-0.24117c24.1542,-2.9232 42.22993,-28.71272 41.27485,-59.12156c-0.9576,-30.48696 -20.71814,-55.26108 -45.09914,-56.7c-0.23688,-0.063 -0.48376,-0.07599 -0.73828,-0.08859zM157.82976,72.56812c0.11844,0.02268 0.23582,0.03434 0.3593,0.03938c22.01724,0.97776 39.9572,23.75647 40.84172,51.85195c0.88452,28.08792 -15.58849,51.8199 -37.49485,54.02742c-0.21924,0.02016 -0.426,0.07686 -0.62508,0.1575l-11.97985,0.32976c-18.89957,-5.28116 -33.50975,-26.3288 -34.31039,-51.82734c-0.52668,-16.72524 4.94215,-32.4361 14.99695,-43.10578c5.31688,-5.64215 11.49955,-9.41464 18.17156,-11.19726l6.71836,-0.18703l0.38391,-0.02461c0.29988,-0.02016 0.59795,-0.04406 0.91547,-0.05414c0.30492,-0.01008 0.61295,-0.00012 0.92039,0.00492l0.46266,0.00492zM140.11101,73.06031c-4.43965,2.20105 -8.5964,5.28225 -12.33422,9.2482c-5.38999,5.72081 -9.50725,12.81806 -12.17672,20.71617h-14.06672c2.45722,-7.10821 6.13309,-13.42106 10.88226,-18.46195c6.78888,-7.20468 15.18276,-11.14947 24.26484,-11.40399l0.38391,-0.00492c0.07308,-0.00252 0.14348,-0.0072 0.21656,-0.01476zM158.78461,84.13453c-0.19404,0 -0.39647,-0.00012 -0.59555,0.00492c-6.1362,0.17136 -11.92826,2.97092 -16.75406,8.09156c-7.56756,8.02872 -11.82987,20.91978 -11.40399,34.4925c0.71568,22.743 14.19394,40.94016 30.18586,40.94016c0.19656,0 0.3967,-0.0024 0.5857,-0.00492c4.22856,-0.11844 8.27438,-1.47093 12.02414,-4.02117c0.57456,-0.3906 0.72529,-1.17019 0.33469,-1.74726c-0.3906,-0.57708 -1.17259,-0.72529 -1.75219,-0.33469c-3.34152,2.27052 -6.93587,3.47981 -10.67555,3.58312c-14.83272,0.315 -27.50718,-16.84982 -28.18758,-38.48906c-0.40572,-12.91752 3.60084,-25.13865 10.71984,-32.69109c4.35456,-4.62168 9.53623,-7.14542 14.99203,-7.29914c14.87808,-0.53424 27.50718,16.8449 28.18758,38.48414c0.28224,8.99892 -1.4944,17.5294 -5.14336,24.66352c-0.315,0.61992 -0.07359,1.38053 0.54633,1.69805c0.61992,0.31752 1.38305,0.06867 1.69805,-0.55125c3.843,-7.5096 5.71382,-16.45934 5.41898,-25.88414c-0.71568,-22.743 -14.19154,-40.93523 -30.18094,-40.93523zM103.40859,87.85547c-4.33179,6.50705 -7.40805,14.19197 -9.06117,22.53727c-3.77088,4.98921 -6.72989,11.07917 -8.42133,17.77289c-0.96768,3.82788 -1.51117,7.70431 -1.60945,11.52211c-0.10332,4.01184 0.28015,7.89548 1.13695,11.53688c0.15876,0.67788 0.83554,1.10147 1.51594,0.93515c0.67788,-0.15624 1.09884,-0.83806 0.94008,-1.51594c-0.80892,-3.43224 -1.17125,-7.09699 -1.07297,-10.89211c0.09324,-3.63132 0.60838,-7.3219 1.5307,-10.97086c1.14566,-4.52364 2.88896,-8.75298 5.07445,-12.52125c-0.415,3.62882 -0.58661,7.34814 -0.46758,11.12836c0.53217,16.97615 6.44163,31.83316 15.55805,42.12633c-1.81359,0.12419 -3.60908,-0.01376 -5.355,-0.46266c-3.6792,-0.94248 -6.89945,-3.06912 -9.56813,-6.30984c-0.44352,-0.53676 -1.2326,-0.61338 -1.77187,-0.16734c-0.53676,0.441 -0.61578,1.23512 -0.17226,1.77187c2.97612,3.61368 6.73675,6.08312 10.88719,7.14656c1.58508,0.40572 3.20284,0.61031 4.83328,0.61031c1.07552,0 2.15558,-0.12375 3.2386,-0.30516c2.53566,2.53271 5.28158,4.73234 8.20969,6.54609c-5.84662,2.5454 -12.08672,3.48705 -18.27,2.37235c-0.20664,-0.0378 -0.40871,-0.04717 -0.61031,-0.02953l-10.62633,-2.7218c-14.90062,-9.3319 -22.25048,-31.03233 -16.64578,-53.20547c1.77307,-7.01607 4.70745,-13.46823 8.50992,-19.04765c0.10322,-0.11179 0.18819,-0.2399 0.24609,-0.38883c4.07705,-5.87688 9.14211,-10.7496 14.92313,-14.18484c2.31261,-1.3743 4.67039,-2.45141 7.04812,-3.28289zM66.38133,102.19289l11.84203,3.3961c-3.39386,5.28092 -6.03339,11.26477 -7.75195,17.69906l-11.86664,-3.40101c1.73179,-6.49634 4.35919,-12.47404 7.77656,-17.69414zM100.72617,105.54469h14.07656c-1.85877,6.34976 -2.79029,13.16132 -2.71688,20.16h-14.08641c-0.07622,-7.07253 0.86044,-13.88987 2.72672,-20.16zM159.27188,108.59625c-0.56448,0 -0.95481,0.1527 -1.16649,0.46266c-0.21168,0.30996 -0.315,0.68611 -0.315,1.12711v0.93024c-1.03572,0.11088 -1.99021,0.32472 -2.85961,0.64476c-0.87192,0.32256 -1.61918,0.75265 -2.25422,1.29445c-0.63504,0.54432 -1.13577,1.20255 -1.50117,1.97367c-0.3654,0.77364 -0.54633,1.67864 -0.54633,2.71688c0,0.3528 0.00216,0.68426 0.01476,0.99422c0.0126,0.30744 0.06918,0.64142 0.16242,0.99422c0.14112,0.70812 0.40434,1.35674 0.79242,1.95398c0.38808,0.59724 0.86286,1.16393 1.42734,1.69313c0.56448,0.5292 1.19917,1.01588 1.90477,1.45687c0.7056,0.441 1.44853,0.85692 2.22469,1.25508l0.63492,0.33469v10.30641c-0.61236,-0.11088 -1.18578,-0.29181 -1.72758,-0.54633c-0.53616,-0.25187 -1.14187,-0.59666 -1.81617,-1.0336c-0.10221,-0.06081 -0.19193,-0.10828 -0.23133,-0.10828h-0.03445c-0.189,-0.15372 -0.38662,-0.30425 -0.5857,-0.44789c-0.19908,-0.14364 -0.42458,-0.21656 -0.68414,-0.21656c-0.189,0 -0.38879,0.08469 -0.60047,0.25101c-0.21168,0.16632 -0.41399,0.36371 -0.60047,0.59555c-0.189,0.23184 -0.3489,0.47644 -0.47742,0.72844c-0.13104,0.25452 -0.19195,0.48014 -0.19195,0.67922v0.2018c0.11592,0.30996 0.21924,0.54952 0.315,0.72844c0.09324,0.1764 0.272,0.36201 0.53156,0.56109c0.96516,0.59724 1.90296,1.09809 2.82024,1.49625c0.91728,0.39816 2.01281,0.66378 3.28289,0.79734v2.21977c0,0.57456 0.17384,1.00694 0.52664,1.3043c0.3528,0.29736 0.82542,0.45281 1.41258,0.45281h0.21164c0.58716,0 0.97749,-0.15762 1.16649,-0.46758c0.18648,-0.30996 0.28055,-0.68119 0.28055,-1.12219v-2.38711c1.01052,-0.13356 1.94615,-0.39702 2.80547,-0.78258c0.85932,-0.38556 1.59264,-0.88401 2.205,-1.49133c0.60984,-0.60984 1.09423,-1.31709 1.44703,-2.13609c0.3528,-0.819 0.52664,-1.73325 0.52664,-2.75133c0,-0.441 -0.03063,-0.87361 -0.08859,-1.29445c-0.05796,-0.41832 -0.15912,-0.88385 -0.30024,-1.39289c-0.3276,-1.19448 -1.00686,-2.33903 -2.04258,-3.44531c-1.03572,-1.10376 -2.50488,-2.10991 -4.41,-3.01711l-0.14273,-0.06399v-9.05133c0.82404,0.19908 1.57622,0.46723 2.25914,0.79735l0.38883,0.19688v-0.02953c0.23436,0.15624 0.43884,0.24527 0.61524,0.28055c0.1764,0.03276 0.3691,0.04922 0.58078,0.04922c0.25956,0 0.49707,-0.08229 0.70875,-0.24609c0.21168,-0.16632 0.3973,-0.36154 0.5611,-0.58078c0.1638,-0.22176 0.29342,-0.44954 0.37406,-0.69398c0.08064,-0.24444 0.12305,-0.44675 0.12305,-0.60047v-0.19688c-0.04788,-0.44352 -0.18675,-0.76561 -0.40851,-0.96469c-0.22428,-0.19908 -0.53448,-0.36607 -0.93516,-0.49711l0.10828,0.06891c-0.8694,-0.3528 -1.65474,-0.64665 -2.34774,-0.88101c-0.69552,-0.23184 -1.37009,-0.40592 -2.02781,-0.5168l0.03445,-0.89086c-0.11844,-1.12644 -0.78592,-1.69313 -2.00812,-1.69313zM157.79039,114.99469v7.25977c-0.75348,-0.378 -1.40702,-0.8105 -1.9589,-1.29938c-0.55188,-0.48384 -0.91157,-1.11144 -1.07789,-1.88508c-0.04788,-0.21924 -0.07359,-0.40737 -0.08367,-0.56109c-0.0126,-0.15624 -0.01969,-0.29957 -0.01969,-0.43313c0,-0.86436 0.30094,-1.54831 0.9007,-2.05735c0.59976,-0.50652 1.34737,-0.84483 2.23945,-1.02375zM58.01906,122.33813l11.87648,3.40594c-1.50722,6.67077 -1.90811,13.27936 -1.31414,19.53984l-11.88141,-3.40594c-0.61047,-6.17017 -0.21347,-12.77793 1.31906,-19.53984zM98.08313,128.22469h14.08641c0.36972,8.1303 2.11132,15.78952 4.90711,22.68h-14.14547c-2.76603,-6.77765 -4.4782,-14.44606 -4.84805,-22.68zM161.38828,128.28375c0.65772,0.39816 1.22189,0.87078 1.69313,1.41258c0.47124,0.53928 0.80282,1.16219 0.9893,1.87031c0.04536,0.22428 0.08993,0.43092 0.13781,0.63c0.04788,0.19908 0.07383,0.42253 0.07383,0.66445c0,0.86184 -0.27992,1.60922 -0.8318,2.2493c-0.55188,0.64008 -1.23822,1.11991 -2.06226,1.42735zM57.01008,144.58992l11.89617,3.41086c1.6365,11.46132 6.58933,21.55222 14.04703,28.33031l-0.87117,-0.22148l-0.00492,0.02461c-0.1134,-0.04788 -0.23101,-0.08788 -0.34945,-0.11813c-13.36158,-3.426 -22.36552,-15.74426 -24.71766,-31.42617zM104.02383,153.42469h14.09625c5.37061,11.7701 13.93221,20.96392 24.12703,25.73649l-1.81125,0.04922l-0.4036,0.01969c-0.30744,0.01008 -0.61295,0.01476 -0.92039,0.01476c-14.90499,0 -27.87329,-10.22627 -35.08805,-25.82016zM179.23992,154.05961c-0.31815,0.05198 -0.61909,0.22838 -0.82195,0.51188c-0.48636,0.67788 -0.99178,1.3265 -1.51594,1.95398c-0.44604,0.53424 -0.37674,1.33076 0.1575,1.7768c0.23436,0.19656 0.52243,0.29039 0.80719,0.29039c0.36036,0 0.72013,-0.15305 0.96961,-0.44789c0.56196,-0.67284 1.10498,-1.37336 1.62914,-2.10164c0.40572,-0.56448 0.27409,-1.35631 -0.29039,-1.76203c-0.2835,-0.20412 -0.61701,-0.27346 -0.93516,-0.22148zM89.93742,158.64188c-0.16222,0.02304 -0.32256,0.07662 -0.4725,0.16734c-0.59472,0.35784 -0.79097,1.13034 -0.43313,1.72758l0.18211,0.315c0.12852,0.21924 0.19613,0.33374 0.43805,0.68906c0.24444,0.35784 0.64024,0.54633 1.04344,0.54633c0.24696,0 0.49455,-0.06788 0.70875,-0.21656c0.57456,-0.39312 0.71797,-1.17763 0.32485,-1.75219c-0.18648,-0.27216 -0.23389,-0.36512 -0.33469,-0.53648l-0.2018,-0.33961c-0.26838,-0.44793 -0.7684,-0.66957 -1.25508,-0.60047z"></path></g><path d="" fill="none" stroke="none" stroke-linejoin="miter"></path><path d="" fill="none" stroke="none" stroke-linejoin="miter"></path></g></g></svg>