<svg version="1.1" xmlns="http://www.w3.org/2000/svg" xmlns:xlink="http://www.w3.org/1999/xlink" viewBox="0 0 252 252"><g transform="translate(0.504,0.504) scale(0.996,0.996)"><g fill="none" fill-rule="nonzero" stroke="none" stroke-width="1" stroke-linecap="butt" stroke-linejoin="none" stroke-miterlimit="10" stroke-dasharray="" stroke-dashoffset="0" font-family="none" font-weight="none" font-size="none" text-anchor="none" style="mix-blend-mode: normal"><g fill="#b9b9b9" stroke="#ffffff" stroke-linejoin="round"><path d="M241.92,126c0,63.96115 -51.95885,115.92 -115.92,115.92c-63.96115,0 -115.92,-51.95885 -115.92,-115.92c0,-63.96115 51.95885,-115.92 115.92,-115.92c63.96115,0 115.92,51.95885 115.92,115.92zM20.16,126c0,58.51351 47.32649,105.84 105.84,105.84c58.51351,0 105.84,-47.32649 105.84,-105.84c0,-58.51351 -47.32649,-105.84 -105.84,-105.84c-58.51351,0 -105.84,47.32649 -105.84,105.84zM76.0725,90.80859c0,0 2.54888,0.2606 5.22703,2.14594c2.85732,2.00863 3.50438,4.46906 3.50438,4.46906l0.08859,0.23625l0.07875,0.24609c0,0 3.47054,11.01405 7.17609,17.13797c4.00857,6.62013 6.91828,9.69089 8.18016,10.57219c0.01656,-0.05116 0.02371,-0.03095 0.03937,-0.08859c0.29616,-1.08982 0.51958,-2.86888 0.60047,-4.63641c0.16173,-3.53506 -0.14766,-6.95953 -0.14766,-6.95953l-0.02953,-0.30516l0.00984,-0.30516c0,0 0.03227,-1.24812 -0.14766,-2.79562c-0.17993,-1.54751 -0.86312,-3.24528 -0.79734,-3.15985v-0.00984c-0.15724,-0.20493 -0.77496,-0.71138 -1.48641,-1.06312c-0.71028,-0.35116 -1.62865,-0.55358 -1.45772,-0.53167c-0.94763,-0.1223 -2.55403,-0.59144 -3.7004,-2.14583c-1.14673,-1.55486 -1.11901,-3.47426 -0.86625,-4.48875c0.50546,-2.02897 1.23537,-2.49305 1.85062,-3.13031c1.23051,-1.27454 2.62773,-2.22885 4.40016,-3.06141l0.03937,-0.01969l0.04922,-0.02953c4.48579,-1.99759 9.53411,-2.2379 17.28563,-2.16563c6.08381,0.05725 8.61612,0.52199 10.96594,1.06313h0.00984c2.25471,0.51994 4.5126,1.41997 6.26063,3.24844c1.74801,1.82847 2.51431,4.20518 2.81531,6.33937c0.602,4.26839 0.05906,8.77648 0.05906,16.00594c0,2.61024 -0.12566,5.30896 0.08859,7.22531c0.09522,0.85071 0.23979,1.31019 0.35438,1.64391c0.10779,-0.0578 0.02158,-0.01175 0.17719,-0.09844c1.46494,-0.8161 4.79656,-3.69313 9.26297,-10.94625h0.00984c3.79835,-6.15684 7.49109,-18.10266 7.49109,-18.10266l0.1575,-0.54141l0.27562,-0.48234c0,0 0.90082,-2.2591 3.78,-3.90797c1.1597,-0.66483 3.66585,-1.31906 5.23688,-1.31906c1.33857,0 17.55543,-0.12797 21.20344,-0.12797c1.74225,0 3.61102,-0.06808 5.72906,0.32484c1.05903,0.19645 2.23888,0.50361 3.50437,1.31906c1.26549,0.81545 2.5565,2.36029 3.03188,4.08516c0.63733,2.31715 0.29331,3.94182 -0.13781,5.89641c-0.43113,1.95458 -1.15062,4.11079 -2.16563,6.48703c-2.03,4.75248 -5.25589,10.38473 -9.85359,16.24219c-3.60731,4.59415 -6.41273,7.93687 -8.25891,10.33594c-1.77137,2.30188 -2.43353,3.69626 -2.50031,3.86859c0.05701,0.01766 0.08078,-0.01622 0.36422,0.33469c0.79836,0.98837 2.81747,2.84719 5.77828,5.47312c11.46052,10.17461 14.33167,14.33585 14.92312,15.2775c1.61901,2.56732 2.46023,5.48642 1.80141,8.26875c-0.65882,2.78233 -2.62105,4.63849 -4.27219,5.65031c-3.30227,2.02364 -6.51656,2.09672 -6.51656,2.09672l-0.22641,0.01969h-20.9475c0,0 -6.35254,0.23748 -12.20625,-3.64219c-4.08695,-2.68022 -7.73151,-6.14577 -10.80844,-8.53453c-1.54087,-1.19625 -2.93012,-2.10368 -3.82922,-2.51015c-0.41722,-0.18862 -0.63714,-0.23957 -0.75797,-0.26578c-0.12054,0.00296 -0.00454,-0.30987 -0.30516,0.96469c-0.32185,1.36481 -0.38391,3.81346 -0.38391,6.33938c0,2.34435 -1.81564,5.36352 -3.92766,6.4575c-2.11201,1.09397 -4.0181,1.19109 -6.15234,1.19109h-6.48703c-12.50669,0 -26.54967,-4.52953 -39.68016,-18.25031c-18.61506,-19.43917 -33.38151,-55.61982 -33.57703,-56.09953v-0.00984c-0.00389,-0.00764 -0.53194,-1.0396 -0.76781,-2.42156c-0.23675,-1.38707 -0.30901,-3.9078 1.58484,-6.07359l0.01969,-0.01969c2.12912,-2.40852 4.20545,-2.49379 5.61094,-2.6775c1.40548,-0.18371 2.56922,-0.11813 2.56922,-0.11813l20.33719,-0.00984zM56.83781,100.80984c2.00148,4.58464 15.3349,34.76439 30.27937,50.37047c11.49492,12.0125 22.15191,15.13969 32.39578,15.13969h6.48703c0.1677,0 0.04325,-0.00227 0.18703,-0.00984c0.01734,-1.9773 -0.06163,-3.94671 0.4725,-6.21141c0.74407,-3.15482 3.06075,-7.12761 7.23516,-8.37703c2.88411,-0.86328 5.62433,-0.17029 7.78641,0.80719c2.16207,0.97747 4.02614,2.30938 5.85703,3.73078c3.66177,2.8428 7.22245,6.15207 10.16859,8.08172h0.00984l0.00984,0.00984c2.78488,1.84577 6.53625,1.96875 6.53625,1.96875h20.42578c0.06995,-0.01547 0.81828,-0.23712 1.44703,-0.43313c-0.07197,-0.14935 0.04942,0.14925 -0.13781,-0.14765v-0.00985c-0.17463,-0.27802 -1.9939,-3.25776 -13.08234,-13.10203c-2.94355,-2.61062 -5.14834,-4.46834 -6.93,-6.67406c-1.78166,-2.20572 -3.08495,-5.68551 -2.40188,-8.77078c0.68308,-3.08527 2.31843,-5.21903 4.40016,-7.92422c2.08173,-2.70518 4.804,-5.94211 8.30813,-10.40484c4.06606,-5.18014 6.87698,-10.15355 8.51484,-13.98797c0.69686,-1.63144 1.07625,-2.89856 1.35844,-3.98672c-0.69826,-0.02827 -1.10989,-0.07875 -2.0475,-0.07875c-3.408,0 -19.33656,0.12797 -21.20344,0.12797c-0.14237,0 -0.02907,-0.01541 -0.11813,-0.01969c-0.03261,0.02265 -0.08859,0.05906 -0.08859,0.05906c-0.31758,1.10555 -3.25257,11.56484 -8.16047,19.52016c-4.96847,8.06848 -9.00305,12.27021 -12.93469,14.46047c-3.93164,2.19027 -8.10309,1.72549 -10.28672,0.37406c-3.83243,-2.37267 -4.82305,-6.42813 -5.17781,-9.59766c-0.35502,-3.1715 -0.14766,-6.19997 -0.14766,-8.3475c0,-7.61838 0.31565,-12.64022 0.03937,-14.59828c-0.06327,-0.44887 -0.1197,-0.67502 -0.15113,-0.77668c-0.12163,-0.06464 -0.46131,-0.22042 -1.21714,-0.39472c-2.24087,-0.51608 -3.10692,-0.75361 -8.80031,-0.80719c-4.46445,-0.04161 -5.69253,0.45884 -7.90453,0.7875c1.97478,2.77654 2.43848,5.54168 2.69719,7.76672c0.25664,2.20821 0.21176,3.84648 0.20672,4.03594c0.03105,0.34013 0.35922,3.77037 0.16734,7.96359c-0.10056,2.19769 -0.32261,4.52143 -0.945,6.81188c-0.62239,2.29044 -1.52294,5.04031 -4.74469,6.71344c-2.41071,1.25418 -7.15345,1.50348 -10.68047,-0.91547c-3.53043,-2.4213 -6.76499,-6.47202 -11.14312,-13.7025c-4.80601,-7.94256 -7.88345,-18.5432 -8.02266,-19.01812c-0.01063,-0.01505 -0.04673,-0.04862 -0.07516,-0.07596c-0.14529,-0.06186 -0.71136,-0.26589 -0.98797,-0.36701zM75.43492,101.15132c0.01245,0.00817 0.02782,0.01855 0.04654,0.03146c-0.00911,-0.02333 -0.15709,-0.3631 -0.15709,-0.3631zM75.48616,101.18603c0.00491,0.0034 0.01005,0.00696 0.01541,0.01069l0,-0.00297c-0.00036,-0.00036 -0.0097,-0.00493 -0.01541,-0.00772zM162.69482,100.89475c0.00153,0.00429 0.00244,0.0088 0.00268,0.01353c0.04184,-0.02371 0.01046,0.00583 0.03937,-0.00984c-0.01385,-0.00123 -0.02791,-0.00246 -0.04206,-0.00369zM125.86746,101.94204c-0.00696,-0.01696 -0.00755,-0.0138 0,0z"></path></g><path d="M0,252v-252h252v252z" fill="none" stroke="none" stroke-linejoin="miter"></path><g fill="#b9b9b9" stroke="none" stroke-linejoin="miter"><path d="M126,10.08c-63.96115,0 -115.92,51.95885 -115.92,115.92c0,63.96115 51.95885,115.92 115.92,115.92c63.96115,0 115.92,-51.95885 115.92,-115.92c0,-63.96115 -51.95885,-115.92 -115.92,-115.92zM126,20.16c58.51351,0 105.84,47.32649 105.84,105.84c0,58.51351 -47.32649,105.84 -105.84,105.84c-58.51351,0 -105.84,-47.32649 -105.84,-105.84c0,-58.51351 47.32649,-105.84 105.84,-105.84zM75.60984,90.72l-20.33719,0.00984c0,0 -1.16374,-0.06558 -2.56922,0.11813c-1.40548,0.18371 -3.48181,0.26898 -5.61094,2.6775l-0.00984,0.00984l-0.00984,0.00984c-1.89385,2.16579 -1.82159,4.68652 -1.58484,6.07359c0.23587,1.38196 0.76392,2.41393 0.76781,2.42156v0.00984c0.19553,0.47971 14.96197,36.66036 33.57703,56.09953c13.13049,13.72078 27.17346,18.25031 39.68016,18.25031h6.48703c2.13424,0 4.04034,-0.09712 6.15234,-1.19109c2.11201,-1.09398 3.92766,-4.11315 3.92766,-6.4575c0,-2.52592 0.06205,-4.97457 0.38391,-6.33938c0.30062,-1.27456 0.18462,-0.96172 0.30516,-0.96469c0.12082,0.02622 0.34075,0.07716 0.75797,0.26578c0.8991,0.40647 2.28835,1.3139 3.82922,2.51015c3.07693,2.38876 6.72149,5.85431 10.80844,8.53453c5.85371,3.87967 12.20625,3.64219 12.20625,3.64219h20.9475l0.22641,-0.01969c0,0 3.21429,-0.07308 6.51656,-2.09672c1.65113,-1.01183 3.61337,-2.86798 4.27219,-5.65031c0.65882,-2.78233 -0.1824,-5.70143 -1.80141,-8.26875c-0.59145,-0.94165 -3.46261,-5.10289 -14.92312,-15.2775c-2.96081,-2.62594 -4.97993,-4.48475 -5.77828,-5.47312c-0.28344,-0.3509 -0.30721,-0.31703 -0.36422,-0.33469c0.06678,-0.17233 0.72894,-1.56671 2.50031,-3.86859c1.84617,-2.39908 4.65159,-5.74179 8.25891,-10.33594c4.5977,-5.85745 7.8236,-11.4897 9.85359,-16.24219c1.01501,-2.37624 1.7345,-4.53245 2.16563,-6.48703c0.43112,-1.95459 0.77515,-3.57926 0.13781,-5.89641c-0.47537,-1.72486 -1.76638,-3.26971 -3.03188,-4.08516c-1.26549,-0.81545 -2.44534,-1.12261 -3.50437,-1.31906c-2.11804,-0.39292 -3.98681,-0.32484 -5.72906,-0.32484c-3.648,0 -19.86487,0.12797 -21.20344,0.12797c-1.57102,0 -4.07717,0.65423 -5.23688,1.31906c-2.87918,1.64887 -3.78,3.90797 -3.78,3.90797l-0.27562,0.48234l-0.1575,0.54141c0,0 -3.69274,11.94582 -7.49109,18.10266h-0.00984c-4.46641,7.25312 -7.79803,10.13015 -9.26297,10.94625c-0.15561,0.08669 -0.0694,0.04064 -0.17719,0.09844c-0.11458,-0.33371 -0.25916,-0.7932 -0.35438,-1.64391c-0.21426,-1.91635 -0.08859,-4.61507 -0.08859,-7.22531c0,-7.22946 0.54293,-11.73755 -0.05906,-16.00594c-0.301,-2.13419 -1.0673,-4.51091 -2.81531,-6.33937c-1.74802,-1.82847 -4.00592,-2.7285 -6.26063,-3.24844h-0.00984c-2.34982,-0.54113 -4.88212,-1.00588 -10.96594,-1.06313c-7.75152,-0.07227 -12.79984,0.16803 -17.28563,2.16563l-0.04922,0.02953l-0.03937,0.01969c-1.77243,0.83256 -3.16965,1.78687 -4.40016,3.06141c-0.61525,0.63727 -1.34516,1.10134 -1.85062,3.13031c-0.25276,1.01449 -0.28048,2.93389 0.86625,4.48875c1.14671,1.55486 2.75373,2.02381 3.70125,2.14594c-0.17479,-0.02268 0.74543,0.17983 1.45687,0.53156c0.71145,0.35174 1.32916,0.85819 1.48641,1.06312v0.00984c-0.06577,-0.08543 0.61742,1.61234 0.79734,3.15985c0.17993,1.5475 0.14766,2.79562 0.14766,2.79562l-0.00984,0.30516l0.02953,0.30516c0,0 0.30939,3.42447 0.14766,6.95953c-0.08089,1.76753 -0.30431,3.54658 -0.60047,4.63641c-0.01566,0.05764 -0.02282,0.03744 -0.03937,0.08859c-1.26188,-0.88129 -4.17159,-3.95206 -8.18016,-10.57219c-3.70555,-6.12392 -7.17609,-17.13797 -7.17609,-17.13797l-0.07875,-0.24609l-0.08859,-0.23625c0,0 -0.64706,-2.46044 -3.50438,-4.46906c-2.67815,-1.88534 -5.22703,-2.14594 -5.22703,-2.14594zM74.43844,100.8c0.28829,0.10539 0.89097,0.32255 1.00406,0.37406l-0.11813,-0.35438c0,0 0.15519,0.35631 0.1575,0.36422c0.00128,0.00069 0.01919,0.00934 0.01969,0.00984v0.00984h0.00984c-0.25331,-0.17721 -0.03857,-0.00131 -0.00984,0.03938c0.1392,0.47492 3.21665,11.07557 8.02266,19.01812c4.37813,7.23048 7.61269,11.2812 11.14312,13.7025c3.52702,2.41895 8.26976,2.16965 10.68047,0.91547c3.22174,-1.67313 4.12229,-4.423 4.74469,-6.71344c0.62239,-2.29045 0.84444,-4.61419 0.945,-6.81188c0.19187,-4.19322 -0.1363,-7.62346 -0.16734,-7.96359c0.00504,-0.18945 0.04992,-1.82773 -0.20672,-4.03594c-0.2587,-2.22504 -0.72241,-4.99018 -2.69719,-7.76672c2.212,-0.32866 3.44008,-0.82911 7.90453,-0.7875c5.69339,0.05358 6.55944,0.29111 8.80031,0.80719c1.22037,0.28143 1.35585,0.51458 1.24031,0.39375c-0.11552,-0.12086 -0.01007,-0.2016 0.12797,0.77766c0.27628,1.95806 -0.03937,6.9799 -0.03937,14.59828c0,2.14753 -0.20736,5.176 0.14766,8.3475c0.35477,3.16952 1.34538,7.22499 5.17781,9.59766c2.18363,1.35144 6.35508,1.81621 10.28672,-0.37406c3.93164,-2.19026 7.96621,-6.392 12.93469,-14.46047c4.9079,-7.95532 7.8429,-18.4146 8.16047,-19.52016c0,0 0.05598,-0.03641 0.08859,-0.05906c0.08906,0.00428 -0.02425,0.01969 0.11813,0.01969c1.86687,0 17.79544,-0.12797 21.20344,-0.12797c0.93761,0 1.34924,0.05048 2.0475,0.07875c-0.28219,1.08816 -0.66158,2.35528 -1.35844,3.98672c-1.63786,3.83442 -4.44879,8.80782 -8.51484,13.98797c-3.50413,4.46273 -6.2264,7.69966 -8.30813,10.40484c-2.08173,2.70519 -3.71708,4.83895 -4.40016,7.92422c-0.68308,3.08527 0.62022,6.56506 2.40188,8.77078c1.78166,2.20573 3.98645,4.06344 6.93,6.67406c11.08844,9.84427 12.90772,12.82401 13.08234,13.10203v0.00985c0.18724,0.29691 0.06584,-0.00169 0.13781,0.14765c-0.62875,0.19601 -1.37709,0.41765 -1.44703,0.43313h-20.39625h-0.02953c0,0 -3.75137,-0.12298 -6.53625,-1.96875l-0.00984,-0.00984h-0.00984c-2.94615,-1.92965 -6.50682,-5.23892 -10.16859,-8.08172c-1.83089,-1.4214 -3.69496,-2.75331 -5.85703,-3.73078c-2.16207,-0.97747 -4.90229,-1.67046 -7.78641,-0.80719c-4.17441,1.24942 -6.49109,5.22221 -7.23516,8.37703c-0.53413,2.26469 -0.45516,4.23411 -0.4725,6.21141c-0.14378,0.00757 -0.01933,0.00984 -0.18703,0.00984h-6.48703c-10.24387,0 -20.90086,-3.12718 -32.39578,-15.13969c-14.94448,-15.60608 -28.27789,-45.78583 -30.27937,-50.37047zM162.35297,100.83937c-0.09148,0.02038 0.17023,0.04014 0.3839,0.05906c-0.02891,0.01567 0.00246,-0.01387 -0.03937,0.00984c-0.00423,-0.08421 -0.22157,-0.0963 -0.34453,-0.06891z"></path></g><path d="" fill="none" stroke="none" stroke-linejoin="miter"></path><path d="" fill="none" stroke="none" stroke-linejoin="miter"></path></g></g></svg>