<svg version="1.1" xmlns="http://www.w3.org/2000/svg" xmlns:xlink="http://www.w3.org/1999/xlink" viewBox="0 0 252 252"><g transform="translate(0.504,0.504) scale(0.996,0.996)"><g fill="none" fill-rule="nonzero" stroke="none" stroke-width="1" stroke-linecap="butt" stroke-linejoin="none" stroke-miterlimit="10" stroke-dasharray="" stroke-dashoffset="0" font-family="none" font-weight="none" font-size="none" text-anchor="none" style="mix-blend-mode: normal"><g fill="#b9b9b9" stroke="#ffffff" stroke-linejoin="round"><path d="M193.86281,78.12c1.39356,0 2.52,1.12896 2.52,2.52c0,1.39104 -1.12644,2.52 -2.52,2.52h-155.7675c-8.59824,0 -15.5925,6.99666 -15.5925,15.59742v36.84516c0,8.60076 6.99426,15.59742 15.5925,15.59742h82.6875c1.39356,0 2.52,1.12896 2.52,2.52c0,1.39104 -1.12644,2.52 -2.52,2.52h-82.6875c-11.3778,0 -20.6325,-9.2571 -20.6325,-20.63742v-36.84516c0,-11.38032 9.25218,-20.63742 20.6325,-20.63742zM170.38055,101.48906l57.83203,53.96836c0.72576,0.6804 0.98713,1.72518 0.65953,2.66766c-0.32508,0.94248 -1.17274,1.60744 -2.16562,1.69312l-24.40758,2.10164l14.44078,31.93805c0.57456,1.26756 0.00996,2.75263 -1.25508,3.32719l-10.60172,4.81851c-0.33264,0.1512 -0.6856,0.23133 -1.04344,0.23133c-0.30744,0 -0.61583,-0.06138 -0.90562,-0.17226c-0.63252,-0.24444 -1.14054,-0.72868 -1.40766,-1.34859l-13.98305,-32.34656l-17.14781,16.30125c-0.7308,0.693 -1.8068,0.89035 -2.73164,0.49219c-0.92484,-0.39816 -1.52086,-1.3102 -1.52086,-2.3182v-79.51289c0,-1.00296 0.59614,-1.90768 1.51594,-2.30836c0.22869,-0.09954 0.46817,-0.16368 0.70875,-0.19195c0.72174,-0.08481 1.45928,0.14545 2.01305,0.65953zM132.78726,101.11008l-11.04469,28.03992h-4.19836l11.01024,-28.03992zM147.82359,101.11008l-11.04469,28.03992h-4.19836l11.01024,-28.03992zM49.21875,103.29047v9.06117c1.45656,-1.88496 3.24446,-2.44617 5.09414,-2.44617c4.62924,0 6.67899,3.14102 6.67899,7.93406v8.60344h-4.03594v-8.56898c0,-2.97612 -1.54917,-4.23281 -3.70125,-4.23281c-2.3814,0 -4.03594,2.01722 -4.03594,4.46414v8.33765h-4.03594v-23.1525zM70.07766,110.17617h4.49859v3.46992h-4.53305v7.0432c0,1.55232 0.86145,2.31328 2.11641,2.31328c0.63,0 1.35434,-0.19975 1.94906,-0.49711l1.12711,3.44039c-1.15668,0.46116 -2.11975,0.66122 -3.34195,0.69398c-3.5406,0.13356 -5.85463,-1.88579 -5.85211,-5.95055v-7.0432h-3.04172v-3.46992h3.04172v-4.20328l4.03594,-0.4282zM83.26828,110.17617h4.49367v3.46992h-4.52813v7.0432c0,1.55232 0.86145,2.31328 2.11641,2.31328c0.63,0 1.35434,-0.19975 1.94906,-0.49711l1.12711,3.44039c-1.15668,0.46116 -2.11975,0.66122 -3.34195,0.69398c-3.53808,0.13356 -5.85211,-1.88579 -5.85211,-5.95055v-7.0432h-3.04172v-3.46992h3.04172v-4.20328l4.03594,-0.4282zM108.46336,118.30219c0,4.76028 -3.01034,8.52961 -8.2343,8.52961c-1.71864,0 -4.26723,-0.52912 -5.42391,-2.31328v8.73141h-4.03594v-23.11312h3.77016l0.26086,2.2493c1.25748,-1.81944 3.4387,-2.61099 5.29594,-2.61351c5.02488,0 8.36719,3.73405 8.36719,8.52961zM179.53524,126.73828c0.28224,0.63504 -0.00229,1.38135 -0.63985,1.66359c-0.1638,0.07308 -0.34051,0.10828 -0.51188,0.10828c-0.48132,0 -0.94256,-0.27941 -1.15172,-0.74813l-6.04898,-13.57453v62.77851l15.49898,-14.74594c0.47124,-0.44856 1.09734,-0.68906 1.73742,-0.68906c0.16632,0 0.34063,0.01646 0.50695,0.04922c0.80892,0.1638 1.47873,0.71072 1.80633,1.46672l14.40141,33.30633l5.97516,-2.71687l-14.86406,-32.88797c-0.33768,-0.74592 -0.29023,-1.60768 0.12305,-2.31328c0.41328,-0.7056 1.14003,-1.15991 1.95399,-1.23047l22.30594,-1.92445l-48.5789,-45.34031zM116.28914,114.76828c0,3.0744 -4.69547,3.0744 -4.69547,0c0,-1.55358 1.17405,-2.33297 2.34774,-2.33297c1.17369,0 2.34773,0.77939 2.34773,2.33297zM95.16445,118.30219c0,2.5452 1.8872,4.63149 4.63148,4.63149c2.74428,0 4.62656,-2.08629 4.62656,-4.63149c0,-2.5452 -1.71848,-4.62656 -4.62656,-4.62656c-2.9106,0 -4.63148,2.07884 -4.63148,4.62656zM116.28914,124.35609c0,3.0744 -4.69547,3.0744 -4.69547,0c0,-1.55484 1.17405,-2.33297 2.34774,-2.33297c1.17369,0 2.34773,0.77813 2.34773,2.33297zM180.98719,131.05476l0.49219,1.15172c0.27216,0.63756 -0.01945,1.37415 -0.65953,1.64883c-0.16128,0.07056 -0.33079,0.10336 -0.49711,0.10336c-0.48636,0 -0.95492,-0.28409 -1.16156,-0.76289l-0.49219,-1.1468c-0.27468,-0.63756 0.02437,-1.37907 0.66445,-1.65375c0.15876,-0.06867 0.32394,-0.10238 0.48727,-0.10336c0.48998,-0.00295 0.95859,0.28283 1.16648,0.76289z"></path></g><path d="M0,252v-252h252v252z" fill="none" stroke="none" stroke-linejoin="miter"></path><g fill="#b9b9b9" stroke="none" stroke-linejoin="miter"><path d="M38.09531,78.12c-11.38032,0 -20.6325,9.2571 -20.6325,20.63742v36.84516c0,11.38032 9.2547,20.63742 20.6325,20.63742h82.6875c1.39356,0 2.52,-1.12896 2.52,-2.52c0,-1.39104 -1.12644,-2.52 -2.52,-2.52h-82.6875c-8.59824,0 -15.5925,-6.99666 -15.5925,-15.59742v-36.84516c0,-8.60076 6.99426,-15.59742 15.5925,-15.59742h155.7675c1.39356,0 2.52,-1.12896 2.52,-2.52c0,-1.39104 -1.12644,-2.52 -2.52,-2.52zM168.3675,100.82953c-0.24058,0.02827 -0.48006,0.09241 -0.70875,0.19195c-0.9198,0.40068 -1.51594,1.3054 -1.51594,2.30836v79.51289c0,1.008 0.59602,1.92004 1.52086,2.3182c0.92484,0.39816 2.00084,0.20081 2.73164,-0.49219l17.14781,-16.30125l13.98305,32.34656c0.26712,0.61992 0.77514,1.10415 1.40766,1.34859c0.2898,0.11088 0.59819,0.17226 0.90562,0.17226c0.35784,0 0.7108,-0.08013 1.04344,-0.23133l10.60172,-4.81851c1.26504,-0.57456 1.82964,-2.05963 1.25508,-3.32719l-14.44078,-31.93805l24.40758,-2.10164c0.99288,-0.08568 1.84054,-0.75064 2.16562,-1.69312c0.3276,-0.94248 0.06623,-1.98726 -0.65953,-2.66766l-57.83203,-53.96836c-0.55377,-0.51408 -1.2913,-0.74434 -2.01305,-0.65953zM128.55445,101.11008l-11.01024,28.03992h4.19836l11.04469,-28.03992zM143.59078,101.11008l-11.01024,28.03992h4.19836l11.04469,-28.03992zM45.18281,103.29047v23.1525h4.03594v-8.33765c0,-2.44692 1.65454,-4.46414 4.03594,-4.46414c2.15208,0 3.70125,1.25669 3.70125,4.23281v8.56898h4.03594v-0.00492v-8.59851c0,-4.79304 -2.04975,-7.93406 -6.67899,-7.93406c-1.84968,0 -3.63758,0.56121 -5.09414,2.44617v-9.06117zM70.07766,105.54469l-4.03594,0.4282v4.20328h-3.04172v3.46992h3.04172v7.0432c-0.00252,4.06476 2.31151,6.08411 5.85211,5.95055c1.2222,-0.03276 2.18527,-0.23282 3.34195,-0.69398l-1.12711,-3.44039c-0.59472,0.29736 -1.31906,0.49711 -1.94906,0.49711c-1.25496,0 -2.11641,-0.76096 -2.11641,-2.31328v-7.0432h4.53305v-3.46992h-4.49859zM83.26828,105.54469l-4.03594,0.4282v4.20328h-3.04172v3.46992h3.04172v7.0432c0,4.06476 2.31403,6.08411 5.85211,5.95055c1.2222,-0.03276 2.18527,-0.23282 3.34195,-0.69398l-1.12711,-3.44039c-0.59472,0.29736 -1.31906,0.49711 -1.94906,0.49711c-1.25496,0 -2.11641,-0.76096 -2.11641,-2.31328v-7.0432h4.52813v-3.46992h-4.49367zM100.09617,109.77258c-1.85724,0.00252 -4.03846,0.79407 -5.29594,2.61351l-0.26086,-2.2493h-3.77016v23.11312h4.03594v-8.73141c1.15668,1.78416 3.70526,2.31328 5.42391,2.31328c5.22396,0 8.2343,-3.76933 8.2343,-8.52961c0,-4.79556 -3.34231,-8.52961 -8.36719,-8.52961zM172.04906,109.93992l48.5789,45.34031l-22.30594,1.92445c-0.81396,0.07056 -1.54071,0.52487 -1.95399,1.23047c-0.41328,0.7056 -0.46073,1.56736 -0.12305,2.31328l14.86406,32.88797l-5.97516,2.71687l-14.40141,-33.30633c-0.3276,-0.756 -0.99741,-1.30292 -1.80633,-1.46672c-0.16632,-0.03276 -0.34063,-0.04922 -0.50695,-0.04922c-0.64008,0 -1.26618,0.2405 -1.73742,0.68906l-15.49898,14.74594v-62.77851l6.04898,13.57453c0.20916,0.46872 0.6704,0.74813 1.15172,0.74813c0.17136,0 0.34808,-0.0352 0.51188,-0.10828c0.63756,-0.28224 0.92209,-1.02855 0.63985,-1.66359zM113.94141,112.43531c-1.17369,0 -2.34774,0.77939 -2.34774,2.33297c0,3.0744 4.69547,3.0744 4.69547,0c0,-1.55358 -1.17404,-2.33297 -2.34773,-2.33297zM99.79594,113.67563c2.90808,0 4.62656,2.08136 4.62656,4.62656c0,2.5452 -1.88228,4.63149 -4.62656,4.63149c-2.74428,0 -4.63148,-2.08628 -4.63148,-4.63149c0,-2.54772 1.72088,-4.62656 4.63148,-4.62656zM113.94141,122.02313c-1.17369,0 -2.34774,0.77813 -2.34774,2.33297c0,3.0744 4.69547,3.0744 4.69547,0c0,-1.55484 -1.17404,-2.33297 -2.34773,-2.33297zM179.8207,130.29188c-0.16333,0.00099 -0.3285,0.03469 -0.48727,0.10336c-0.64008,0.27468 -0.93913,1.01619 -0.66445,1.65375l0.49219,1.1468c0.20664,0.4788 0.6752,0.76289 1.16156,0.76289c0.16632,0 0.33583,-0.0328 0.49711,-0.10336c0.64008,-0.27468 0.93169,-1.01127 0.65953,-1.64883l-0.49219,-1.15172c-0.2079,-0.48006 -0.6765,-0.76584 -1.16648,-0.76289z"></path></g><path d="" fill="none" stroke="none" stroke-linejoin="miter"></path><path d="" fill="none" stroke="none" stroke-linejoin="miter"></path></g></g></svg>