<?xml version="1.0" encoding="UTF-8"?>
<!DOCTYPE svg PUBLIC "-//W3C//DTD SVG 1.1//EN" "http://www.w3.org/Graphics/SVG/1.1/DTD/svg11.dtd">
<!-- Creator: CorelDRAW 2018 (64-Bit) -->
<svg xmlns="http://www.w3.org/2000/svg" xml:space="preserve" width="35.8694mm" height="14.4638mm" version="1.1" style="shape-rendering:geometricPrecision; text-rendering:geometricPrecision; image-rendering:optimizeQuality; fill-rule:evenodd; clip-rule:evenodd"
viewBox="0 0 21.28 8.58"
 xmlns:xlink="http://www.w3.org/1999/xlink">
 <defs>
  <style type="text/css">
   <![CDATA[
    .str0 {stroke:white;stroke-width:0.49;stroke-linejoin:round;stroke-miterlimit:22.9256}
    .fil2 {fill:none}
    .fil0 {fill:#B9B9B9}
    .fil1 {fill:#B9B9B9;fill-rule:nonzero}
   ]]>
  </style>
 </defs>
 <g id="Слой_x0020_1">
  <metadata id="CorelCorpID_0Corel-Layer"/>
  <g id="_2432488123712">
   <path class="fil0 str0" d="M5.99 0.95l-0.36 0.33 -0.46 -0.51 -0.88 0.79 -0.58 -0.61 -1.68 1.55 1.06 1.18 -0.43 0.38 1.05 1.17 -0.4 0.36 1.56 1.74 0.87 -0.78 0.76 0.85c-0.38,0.3 -0.82,0.53 -1.3,0.67l0 0.01c-0.12,0.04 -0.25,0.06 -0.38,0.09 -0,0 -0,0 -0,0 -0.23,0.04 -0.46,0.07 -0.7,0.07 -2.14,0 -3.88,-1.74 -3.88,-3.88 0,-0.81 0.25,-1.57 0.68,-2.19 0,-0 0,-0 0,-0 0.07,-0.1 0.14,-0.2 0.22,-0.29l0 0c0.71,-0.85 1.78,-1.4 2.97,-1.4 0.68,0 1.32,0.18 1.87,0.48l0 0zm0.81 0.82l-0.38 0.34 -0.34 -0.38 0.38 -0.34 0.34 0.38zm-1.07 0.35l-0.63 0.56 -0.56 -0.63 0.63 -0.56 0.56 0.63zm-1.3 0.49l-0.85 0.76 -0.76 -0.85 0.85 -0.76 0.76 0.85zm-3.59 1.74c0,1.81 1.46,3.28 3.28,3.28 0.07,0 0.14,-0 0.22,-0.01l-1.86 -2.07 0.4 -0.36 -0.65 -0.73 -0.4 -0.44 0.43 -0.38 -0.91 -1.01c-0.31,0.5 -0.5,1.09 -0.5,1.73l0 0zm6.55 -1.18l-0.38 0.34 -0.34 -0.38 0.38 -0.34 0.34 0.38zm-1.01 0.37l-0.63 0.56 -0.56 -0.63 0.63 -0.56 0.56 0.63zm-1.28 0.66l-0.85 0.76 -0.76 -0.85 0.85 -0.76 0.76 0.85zm2.88 0.35l-0.38 0.34 -0.34 -0.38 0.38 -0.34 0.34 0.38zm-1.01 0.47l-0.63 0.56 -0.56 -0.63 0.63 -0.56 0.56 0.63zm-1.22 0.78l-0.85 0.76 -0.76 -0.85 0.85 -0.76 0.76 0.85zm1.83 0.62l-0.63 0.56 -0.56 -0.63 0.63 -0.56 0.56 0.63z"/>
  </g>
  <g id="_2432488128032">
   <path class="fil0" d="M4.12 0.47c-1.2,0 -2.26,0.55 -2.97,1.4l-0 -0c-0.08,0.09 -0.15,0.19 -0.22,0.29 -0,0 -0,0 -0,0 -0.43,0.62 -0.68,1.38 -0.68,2.19 0,2.14 1.74,3.88 3.88,3.88 0.24,0 0.47,-0.02 0.7,-0.07 0,-0 0,-0 0,-0 0.13,-0.02 0.26,-0.05 0.38,-0.09l-0 -0.01c0.48,-0.14 0.92,-0.37 1.3,-0.67l-0.76 -0.85 -0.87 0.78 -1.56 -1.74 0.4 -0.36 -1.05 -1.17 0.43 -0.38 -1.06 -1.18 1.68 -1.55 0.58 0.61 0.88 -0.79 0.46 0.51 0.36 -0.33c-0.56,-0.31 -1.19,-0.48 -1.87,-0.48l0 0zm2.34 0.93l-0.38 0.34 0.34 0.38 0.38 -0.34 -0.34 -0.38zm-1.29 0.09l-0.63 0.56 0.56 0.63 0.63 -0.56 -0.56 -0.63zm-1.5 0.27l-0.85 0.76 0.76 0.85 0.85 -0.76 -0.76 -0.85zm-2.34 0.85l0.91 1.01 -0.43 0.38 0.4 0.44 0.65 0.73 -0.4 0.36 1.86 2.07c-0.07,0 -0.14,0.01 -0.22,0.01 -1.81,0 -3.28,-1.46 -3.28,-3.28 0,-0.64 0.18,-1.23 0.5,-1.73l0 0zm5.71 0.17l-0.38 0.34 0.34 0.38 0.38 -0.34 -0.34 -0.38zm-1.24 0.12l-0.63 0.56 0.56 0.63 0.63 -0.56 -0.56 -0.63zm-1.48 0.44l-0.85 0.76 0.76 0.85 0.85 -0.76 -0.76 -0.85zm3.31 0.82l-0.38 0.34 0.34 0.38 0.38 -0.34 -0.34 -0.38zm-1.23 0.21l-0.63 0.56 0.56 0.63 0.63 -0.56 -0.56 -0.63zm-1.42 0.56l-0.85 0.76 0.76 0.85 0.85 -0.76 -0.76 -0.85zm2.03 0.84l-0.63 0.56 0.56 0.63 0.63 -0.56 -0.56 -0.63z"/>
  </g>
  <polygon class="fil1" points="9.69,3.47 9.72,3.64 9.76,3.48 10.02,2.55 10.17,2.55 10.43,3.48 10.46,3.64 10.49,3.46 10.7,2.55 10.87,2.55 10.55,3.89 10.39,3.89 10.12,2.91 10.09,2.81 10.07,2.91 9.79,3.89 9.63,3.89 9.31,2.55 9.48,2.55 "/>
  <polygon id="1" class="fil1" points="12,3.27 11.43,3.27 11.43,3.74 12.1,3.74 12.1,3.89 11.25,3.89 11.25,2.55 12.09,2.55 12.09,2.7 11.43,2.7 11.43,3.13 12,3.13 "/>
  <path id="2" class="fil1" d="M12.5 3.89l0 -1.33 0.44 0c0.14,0 0.25,0.03 0.33,0.09 0.07,0.06 0.11,0.15 0.11,0.27 0,0.06 -0.02,0.12 -0.05,0.17 -0.04,0.05 -0.08,0.09 -0.14,0.11 0.07,0.02 0.13,0.06 0.17,0.11 0.04,0.06 0.06,0.12 0.06,0.2 0,0.12 -0.04,0.21 -0.12,0.28 -0.08,0.07 -0.19,0.1 -0.33,0.1l-0.46 0zm0.18 -0.62l0 0.48 0.29 0c0.08,0 0.15,-0.02 0.19,-0.06 0.05,-0.04 0.07,-0.1 0.07,-0.17 0,-0.16 -0.09,-0.24 -0.26,-0.24l-0.29 0zm0 -0.14l0.27 0c0.08,0 0.14,-0.02 0.18,-0.06 0.05,-0.04 0.07,-0.09 0.07,-0.16 0,-0.07 -0.02,-0.13 -0.06,-0.16 -0.04,-0.03 -0.11,-0.05 -0.2,-0.05l-0.26 0 0 0.42z"/>
  <polygon id="3" class="fil1" points="14.08,2.55 14.51,3.64 14.95,2.55 15.17,2.55 15.17,3.89 15,3.89 15,3.37 15.02,2.81 14.58,3.89 14.44,3.89 14.01,2.81 14.02,3.37 14.02,3.89 13.85,3.89 13.85,2.55 "/>
  <path id="4" class="fil1" d="M16.69 3.26c0,0.13 -0.02,0.24 -0.07,0.34 -0.04,0.1 -0.11,0.17 -0.19,0.22 -0.08,0.05 -0.17,0.08 -0.28,0.08 -0.11,0 -0.2,-0.03 -0.28,-0.08 -0.08,-0.05 -0.14,-0.13 -0.19,-0.22 -0.05,-0.1 -0.07,-0.21 -0.07,-0.33l0 -0.1c0,-0.13 0.02,-0.24 0.07,-0.34 0.04,-0.1 0.11,-0.17 0.19,-0.23 0.08,-0.05 0.17,-0.08 0.28,-0.08 0.11,0 0.2,0.03 0.28,0.08 0.08,0.05 0.14,0.13 0.19,0.22 0.04,0.1 0.07,0.21 0.07,0.34l0 0.08zm-0.17 -0.09c0,-0.16 -0.03,-0.28 -0.1,-0.36 -0.06,-0.08 -0.15,-0.13 -0.27,-0.13 -0.11,0 -0.2,0.04 -0.26,0.13 -0.06,0.08 -0.1,0.2 -0.1,0.35l0 0.1c0,0.15 0.03,0.27 0.1,0.36 0.06,0.09 0.15,0.13 0.27,0.13 0.11,0 0.2,-0.04 0.26,-0.12 0.06,-0.08 0.09,-0.2 0.1,-0.36l0 -0.1z"/>
  <polygon id="5" class="fil1" points="18.16,3.89 17.99,3.89 17.31,2.86 17.31,3.89 17.14,3.89 17.14,2.55 17.31,2.55 17.99,3.58 17.99,2.55 18.16,2.55 "/>
  <polygon id="6" class="fil1" points="19.41,3.27 18.83,3.27 18.83,3.74 19.5,3.74 19.5,3.89 18.66,3.89 18.66,2.55 19.49,2.55 19.49,2.7 18.83,2.7 18.83,3.13 19.41,3.13 "/>
  <polygon id="7" class="fil1" points="20.31,3.22 20.66,2.55 20.86,2.55 20.4,3.39 20.4,3.89 20.22,3.89 20.22,3.39 19.76,2.55 19.97,2.55 "/>
  <polygon id="8" class="fil1" points="9.85,5.9 10.23,4.8 10.42,4.8 9.92,6.14 9.77,6.14 9.28,4.8 9.47,4.8 "/>
  <polygon id="9" class="fil1" points="11.53,5.52 10.96,5.52 10.96,5.99 11.63,5.99 11.63,6.14 10.78,6.14 10.78,4.8 11.62,4.8 11.62,4.95 10.96,4.95 10.96,5.38 11.53,5.38 "/>
  <path id="10" class="fil1" d="M12.52 5.6l-0.31 0 0 0.54 -0.18 0 0 -1.33 0.44 0c0.15,0 0.27,0.03 0.35,0.1 0.08,0.07 0.12,0.17 0.12,0.3 0,0.08 -0.02,0.16 -0.07,0.22 -0.04,0.06 -0.11,0.11 -0.19,0.14l0.31 0.56 0 0.01 -0.19 0 -0.29 -0.54zm-0.31 -0.14l0.27 0c0.09,0 0.16,-0.02 0.21,-0.07 0.05,-0.05 0.08,-0.11 0.08,-0.18 0,-0.08 -0.02,-0.15 -0.07,-0.19 -0.05,-0.04 -0.12,-0.07 -0.21,-0.07l-0.27 0 0 0.51z"/>
  <polygon id="11" class="fil1" points="13.55,6.14 13.38,6.14 13.38,4.8 13.55,4.8 "/>
  <polygon id="12" class="fil1" points="14.79,5.55 14.23,5.55 14.23,6.14 14.06,6.14 14.06,4.8 14.88,4.8 14.88,4.95 14.23,4.95 14.23,5.4 14.79,5.4 "/>
  <polygon id="13" class="fil1" points="15.46,6.14 15.29,6.14 15.29,4.8 15.46,4.8 "/>
  <polygon id="14" class="fil1" points="16.72,5.52 16.14,5.52 16.14,5.99 16.81,5.99 16.81,6.14 15.97,6.14 15.97,4.8 16.8,4.8 16.8,4.95 16.14,4.95 16.14,5.38 16.72,5.38 "/>
  <path id="15" class="fil1" d="M17.21 6.14l0 -1.33 0.38 0c0.12,0 0.22,0.03 0.31,0.08 0.09,0.05 0.16,0.12 0.21,0.22 0.05,0.09 0.07,0.2 0.07,0.33l0 0.09c0,0.13 -0.02,0.24 -0.07,0.33 -0.05,0.09 -0.12,0.17 -0.21,0.22 -0.09,0.05 -0.19,0.08 -0.31,0.08l-0.37 0zm0.18 -1.19l0 1.04 0.18 0c0.14,0 0.24,-0.04 0.32,-0.13 0.08,-0.08 0.11,-0.2 0.11,-0.36l0 -0.08c0,-0.15 -0.04,-0.27 -0.11,-0.35 -0.07,-0.08 -0.17,-0.13 -0.3,-0.13l-0.2 0z"/>
  <polygon class="fil2" points="0.02,8.58 0.02,0 21.28,0 21.28,8.58 "/>
 </g>
</svg>
